<svg id="Layer_1" data-name="Layer 1" xmlns="http://www.w3.org/2000/svg" viewBox="0 0 1280 800"><title>horizontal lockup</title><path d="M765,263.07c0,33.07-.36,66.15.12,99.21.31,21.26-8.45,31.15-29.25,31-64.35-.41-128.69-.3-193-.06-19.31.07-28.08-9.15-28-29.28q.39-100.62,0-201.25c-.09-20.07,8.72-29.85,27.77-29.86,64.34,0,128.69.11,193-.09,20.34-.06,29.83,9.64,29.51,31.1C764.66,196.93,765,230,765,263.07ZM525.81,260.6c0,32.1.69,64.23-.26,96.3-.53,17.85,4.61,25.5,23,25.24q91-1.29,182,0c17.44.22,24.13-5.6,23.9-24.33-.78-63.26-.62-126.53-.09-189.79.14-16.47-4.69-24.19-21.61-24q-92.38.84-184.77,0c-16.18-.14-22.88,5.82-22.4,23.17C526.43,198.26,525.82,229.44,525.81,260.6Z"/><path d="M563,333.88c67.57-8.46,79-24,71.47-93.58l-31.2-8.22,62-56.56L717,231.93,689.84,240C673.05,351.33,638.11,378.61,563,333.88Z"/><path d="M168.62,618.91a15.81,15.81,0,0,1-27-11.17q0-6.56-.45-65.71t.23-65.71a15.05,15.05,0,0,1,5-10.95,16,16,0,0,1,11.29-4.4,11.44,11.44,0,0,1,2.25.22,3.7,3.7,0,0,0,1.13-.22q27.55-4.52,43.13-3.62,30.7,2,46.52,21.45,12.18,14.91,12.41,31.84T252.5,539.09a59.62,59.62,0,0,1-22.13,15.13,82.21,82.21,0,0,1-27.09,6.1c-3,.15-6.25.15-9.71,0s-7.64-.45-12.53-.9-7.65-.76-8.25-.91q.45,34.1.46,49.23A15.22,15.22,0,0,1,168.62,618.91Zm49.11-93.48q7.46-3,11.06-7.34a13.08,13.08,0,0,0,2.49-3.72q.67-1.7-.34-6.44a22.45,22.45,0,0,0-4.63-9.26q-7.23-8.81-24.16-9.7-11.29-.69-29.36,2-.22,15.12-.22,35.9h.22L183.41,528q5.86.45,10.16.68a77.51,77.51,0,0,0,8.35,0A44.42,44.42,0,0,0,217.73,525.43Z"/><path d="M291.65,619A49.89,49.89,0,0,1,272,605.7a40.51,40.51,0,0,1-9.49-19.64,71.52,71.52,0,0,1-1.35-13.55A69.67,69.67,0,0,1,267,544.06q8.13-18.73,22.81-30.26a52.69,52.69,0,0,1,33.41-11.51,66.37,66.37,0,0,1,14.68,1.8,32.81,32.81,0,0,1,10.16,4.75h1.13l2.26-.23a14.41,14.41,0,0,1,10.05,4.06,15.64,15.64,0,0,1,5.08,9.94l1.58,15.58q.45,9.94,1.13,33.87l.45,12.19c.3,7.53.48,12.46.57,14.79a39.92,39.92,0,0,1-.34,6.66,21.36,21.36,0,0,1-4.86,11.18,13.55,13.55,0,0,1-10.27,4.86,15.17,15.17,0,0,1-9.38-2.6q-4.17-2.82-6-10.27a30.62,30.62,0,0,1-12.64,9.25,53.33,53.33,0,0,1-17.62,4.07A55.84,55.84,0,0,1,291.65,619Zm31.84-33a23.67,23.67,0,0,0,4.06-3.39l3.39-3.16,3.84-5.42a7.74,7.74,0,0,1,3.16-2.26q0-19-1.13-32.06l-2.26-1.58-3.16-2.49-2-1.35a25.07,25.07,0,0,0-5.64-.9q-8.13,0-15.7,6.32t-12.08,17.61a42.23,42.23,0,0,0-3.61,15.81,17.41,17.41,0,0,0,2.82,10.16,15.65,15.65,0,0,0,8,5.87,19.84,19.84,0,0,0,6.32,1.13A27.41,27.41,0,0,0,323.49,586.06Z"/><path d="M384.66,606.38q-.23-22.35-.22-35.22a14.65,14.65,0,0,1,0-5.2q-.24-25.07-.23-45.38,0-8.81,4.63-13.44A15.24,15.24,0,0,1,400,502.51a15.52,15.52,0,0,1,8.69,2.6q3.94,2.59,5.76,9.15,9-5,27.09-11.3a14.67,14.67,0,0,1,11.41.57,14,14,0,0,1,7.56,8.47,14.6,14.6,0,0,1-.56,11.4A14,14,0,0,1,451.5,531a353.88,353.88,0,0,0-35.45,14.23,125.94,125.94,0,0,0-.23,20.55q.23,14.22.45,40.19a15.61,15.61,0,0,1-4.62,11.29A14.94,14.94,0,0,1,400.58,622a15.31,15.31,0,0,1-11.18-4.74A14.44,14.44,0,0,1,384.66,606.38Z"/><path d="M515.9,619.48a27.13,27.13,0,0,1-4.74-2.26l-5.87-3.39q-9-5.19-13.55-9.71A23.08,23.08,0,0,1,487,594.3,95.88,95.88,0,0,1,485.87,580v-4.51q-.22-6.56-.23-30.49,0-9.71.23-14.67h-4.29a13.82,13.82,0,0,1-9.82-3.95,13.23,13.23,0,0,1-4.18-10.05,14,14,0,0,1,4.29-10.5,13.79,13.79,0,0,1,9.93-4.18h4.07l.23-9.71v-7q.21-7.23,4.85-11.18a16,16,0,0,1,10.73-4,16.38,16.38,0,0,1,11.17,4.29q4.86,4.29,4.86,11.74l-.45,15.36h8.35q8.13,0,12.19,4.29a15.13,15.13,0,0,1,4.07,10.84A14.78,14.78,0,0,1,537.58,527q-4.29,4.41-12.65,4.41h-8.35q0,9.26-.23,13.77-.23,4.74-.22,13.55,0,14.44.9,25.06c.6.61,1,.9,1.13.9l2.26,1.59,1.8.9,2,1.13,1.8.9a34.39,34.39,0,0,1,7,4.07q7,4.74,7,12.64a16.7,16.7,0,0,1-4.51,11.4,14,14,0,0,1-10.84,5.08A15.38,15.38,0,0,1,515.9,619.48Z"/><path d="M651.69,618.12a14.09,14.09,0,0,1-10.61,4.07,14.6,14.6,0,0,1-10.39-4.74,14.11,14.11,0,0,1-4.06-10.62q0-2.48.56-14.9t.68-19.19q.12-6.78-.56-15.7a60.9,60.9,0,0,0-2.49-14.33,13.53,13.53,0,0,0-5.42-7.12,20,20,0,0,0-10.16-3.27,23.85,23.85,0,0,0-11.63,1.47,16.12,16.12,0,0,0-7.79,6,26.77,26.77,0,0,0-1,4,28.46,28.46,0,0,0-.12,3q0,7.9.23,28.34t.23,31a15.81,15.81,0,0,1-31.62,0q0-9.49-.33-38.84t-1.92-44.93q-1.14-8.13,3.16-13a14.1,14.1,0,0,1,11.06-4.85q12.19.68,14.23,11.74,10.38-13.09,28.67-13.78,16,.23,26.2,8.7t14.67,22.46a88.8,88.8,0,0,1,3.5,19.42q1,11.74.91,19.76T657,594.19q-.57,13.32-.56,13.55A14.61,14.61,0,0,1,651.69,618.12Z"/><path d="M697.2,616.32a52.68,52.68,0,0,1-20.66-20.55,57.84,57.84,0,0,1-7.11-28.45q0-19.65,7.22-34a55.56,55.56,0,0,1,20.78-22.69,57.37,57.37,0,0,1,30.71-8.35q17.61,0,30.14,7.22a47,47,0,0,1,18.85,19.54,59.07,59.07,0,0,1,6.33,27.43q0,7.68-5,12t-13.32,5q-16.93,1.59-30,1.59-12.42,0-26.65-.68l-7.9-.23q1.35,11.07,8.69,17.28t22.24,5.75a35.93,35.93,0,0,0,10.84-1.69,21,21,0,0,0,7.23-4.4l3.84-3.84a15,15,0,0,1,4.51-3.16,14.77,14.77,0,0,1,6.1-1.13,13.34,13.34,0,0,1,9.82,4,12.58,12.58,0,0,1,3.95,9.15q0,7.21-7.22,13.77A52.08,52.08,0,0,1,752,620.16,72.35,72.35,0,0,1,728.81,624Q710.75,624,697.2,616.32Zm33.42-63.91q15.58-.21,22.81-2-.46-9.71-5.76-15.58t-19.08-5.64q-11.52.23-18.74,5.19T701,551.06A181.67,181.67,0,0,0,730.62,552.41Z"/><path d="M796.59,606.38q-.23-22.35-.23-35.22a15.13,15.13,0,0,1,0-5.2q-.23-25.07-.22-45.38,0-8.81,4.63-13.44a15.24,15.24,0,0,1,11.17-4.63,15.53,15.53,0,0,1,8.7,2.6q3.95,2.59,5.76,9.15,9-5,27.09-11.3a14.65,14.65,0,0,1,11.4.57,14.06,14.06,0,0,1,7.57,8.47,14.65,14.65,0,0,1-.57,11.4,14,14,0,0,1-8.46,7.56A352.91,352.91,0,0,0,828,545.19q-.91,7.23-.23,20.55.22,14.22.45,40.19a15.58,15.58,0,0,1-4.63,11.29A14.91,14.91,0,0,1,812.51,622a15.3,15.3,0,0,1-11.18-4.74A14.44,14.44,0,0,1,796.59,606.38Z"/><path d="M883,566.19a227.67,227.67,0,0,1-.91-33.42q.45-10.85,2-33,1.36-18.51,1.36-24.16a15.68,15.68,0,0,1,4.85-11.06,15,15,0,0,1,11.18-4.4,15.23,15.23,0,0,1,11.07,4.74,15.07,15.07,0,0,1,4.4,11.17q-.12,6.56-1.47,26-1.57,23.49-1.81,31.61a203,203,0,0,0,.57,29q1.23,11.17,3.73,14.79a29.9,29.9,0,0,0,17.61,12,39,39,0,0,0,22.35-.68,33.77,33.77,0,0,0,17.61-13.1q10.62-15.34,11.29-44.48.23-10.38-.67-27.32-1.37-22.58-1.58-27.55A16,16,0,0,1,989,465a14.67,14.67,0,0,1,11-4.85,15.57,15.57,0,0,1,11.29,4.29,15.07,15.07,0,0,1,5,10.95q0,4.51,1.35,26.64,1.14,18.3.68,30-.9,38.4-16.48,61.2a62.58,62.58,0,0,1-23.49,20.43,74.6,74.6,0,0,1-30.14,8.47,66.09,66.09,0,0,1-30.82-5.87,58.93,58.93,0,0,1-25.07-20.78Q885,585.39,883,566.19Z"/><path d="M1056.39,662.83a15,15,0,0,1-11.18,4.4,15.22,15.22,0,0,1-11.07-4.74,15.4,15.4,0,0,1-4.51-11.17q.67-39.08.68-132.77a15.79,15.79,0,0,1,15.8-15.81,14.94,14.94,0,0,1,13.32,7.45q24.39-13.54,46.52-3.61,19.41,9,28.45,32.06a70.41,70.41,0,0,1,4.4,19.76,73.24,73.24,0,0,1-1.58,21.22,53.2,53.2,0,0,1-9.59,20.66,50.72,50.72,0,0,1-18.75,15.36q-19.43,9.71-34.77,5.19a44.37,44.37,0,0,1-12.42-5.87q-.23,17.38-.45,36.81A15.68,15.68,0,0,1,1056.39,662.83Zm38.5-74.06q8.8-4.51,11.74-15.47t-1.13-23.37q-5-11.05-12.65-14.67a18.89,18.89,0,0,0-15.35-.68q-7.45,2.94-15.58,15.35v26q4.51,8.36,10.16,12.08a20.09,20.09,0,0,0,11.06,3.73Q1086.53,592.84,1094.89,588.77Z"/></svg>