<svg id="OBJECTS" xmlns="http://www.w3.org/2000/svg" viewBox="0 0 364.02 297.9"><defs><style>.cls-1{fill:#9c78ed;}.cls-2{fill:#a96450;}.cls-3,.cls-4{fill:#fff;}.cls-3{stroke:#000;stroke-miterlimit:10;}.cls-5{fill:#4d2619;}.cls-6{fill:#734337;}.cls-7{fill:#633020;}.cls-8{fill:#4a2418;}</style></defs><title>partnerup_lp_3</title><polygon class="cls-1" points="190.67 293.44 190.01 289.41 187.45 273.79 186.56 268.44 184.11 253.51 179.65 253.71 120.55 256.43 98.66 257.44 97.26 269.05 96.6 274.46 94.66 290.5 94.3 293.44 190.67 293.44"/><path d="M181.46,119.71s.75-16.24-9-19.36c-15.15-4.85-19.36,3.12-21.7,8.39-3,6.75-1.72,20,7.32,21.28C171.6,131.93,180.62,124.24,181.46,119.71Z" transform="translate(-71.16 -98.85)"/><path d="M191.22,174a16.69,16.69,0,0,0,16.28-13.42c1.16-5.63,2.29-10.62,2.29-13.42v-.07c.07-.89.11-1.77.12-2.65.1-12.81-7.68-36.2-35-32.48,0,0-22.7,2.63-25.28,25.15,0,0-1.08,10.39-1.79,17.92,0,.13,0,.26,0,.39A16.78,16.78,0,0,0,164.31,174Z" transform="translate(-71.16 -98.85)"/><path d="M223.7,200.76s4.84,38.91,10.36,58.89c0,0,7.85-3.71,18.13-8.75,11.14-5.47,27.16-15.44,27.16-15.44l4,9.9S242,285,228.31,287.25s-22.1-47.58-22.1-47.58Z" transform="translate(-71.16 -98.85)"/><path class="cls-2" d="M278.5,236.62s-1.14-5.53,1.3-9.27,6.15-10.74,10.5-12.21c3.65-1.22-1.73,5-1.89,9a60.48,60.48,0,0,0,9.33-2c3.44-1.14,10.24-2.55,13.4-3.18a.88.88,0,0,1,.75,1.52c-1.07.95-3.32,2.14-8,3.27,0,0,11.33-2.18,12.51-.41s-13.05,4.22-13.05,4.22,11-.66,11.32,1.09c.18,1.07-11.25,3.52-11.25,3.52s10.43.29,7.91,2c-.74.49-20.93,2.79-28,11.22C283.4,245.36,278.67,240.4,278.5,236.62Z" transform="translate(-71.16 -98.85)"/><path d="M153.93,193.1s-23.15,6.93-43.09,11.5c0,0-.52-8.78-1-20.36-.56-12.55.45-31.59.45-31.59l-10.5,1.09s-14.67,55.81-10.09,69.12,62.67-5.33,62.67-5.33Z" transform="translate(-71.16 -98.85)"/><path class="cls-2" d="M109.65,154s5.33-1.62,7.42-5.57,7.83-11.93,4.28-14.88c-1.3-1.07-2.23,3.63-5.59,5.65a62.88,62.88,0,0,1-2.72-9.27c-.65-3.61-2.66-10.36-3.62-13.48a.87.87,0,0,0-1.68,0c-.3,1.41-.27,4,1,8.68,0,0-3.5-11.16-5.59-11.37s2.55,13.66,2.55,13.66-4.68-10.17-6.33-9.59c-1,.35,2.3,11.73,2.3,11.73s-5.21-9.18-5.46-6.14c-.07.89,7.54,20,3.58,30.31C99.75,153.74,106.3,155.6,109.65,154Z" transform="translate(-71.16 -98.85)"/><path class="cls-3" d="M222.83,351.52l.19.83c-18,12.39-85.45,3.93-85.45,3.93.11-1.43.26-2.93.46-4.49q.32-2.6.77-5.38c.81-5,1.91-10.37,3.13-15.91.4-1.75.79-3.52,1.21-5.3,1.22-5.29,2.51-10.66,3.74-15.89.42-1.79.84-3.56,1.24-5.33.56-2.44,1.09-4.85,1.6-7.18.67-3.11,1.26-6.09,1.76-8.89.33-1.89.62-3.7.84-5.42s.44-3.54.54-5.13c-1.07-4-2.07-8-3-11.78-.46-1.95-.91-3.85-1.36-5.73-1.38-6-2.6-11.75-3.66-17.11-.38-2-.75-3.85-1.09-5.7-1.18-6.33-2.13-12.06-2.9-17-.3-2-.58-3.86-.82-5.61q-.41-2.88-.7-5.3c-.91-7.09-1.22-11.11-1.22-11.11.16-.13.33-.24.5-.37a36.45,36.45,0,0,1,8.79-4.1c3.75-1.3,7.9-2.44,11.56-3.33l1.63-.4c4.8-1.14,8.4-1.8,8.4-1.8,16.35,3.48,21,1.24,21,1.24l8.31,2.49,1,.35,6.06,2.16.24.09,10.86,3.88,7.25,2.58-2.81,13.17-1.23,5.75L216,237l-1.22,5.73L211.05,260l-1.21,5.68L206.79,280l.61,2.73,1.19,5.3,1.89,8.44,1.72,7.63,1.18,5.29,3.56,15.9,1.19,5.26,3.52,15.72Z" transform="translate(-71.16 -98.85)"/><path class="cls-2" d="M199.29,192.05c-1.74,10.38-6.7,20.81-17,21.94-12.44,1.37-18.89-14.48-21.7-24.22,4.8-1.14,9.78-2.25,9.78-2.25,16.35,3.48,19.51,1.36,19.51,1.36l8.43,2.82Z" transform="translate(-71.16 -98.85)"/><path class="cls-4" d="M181,205.27c-13,0-16.16-16.35-16.19-16.52a.64.64,0,1,1,1.26-.23c.12.65,3.08,16.08,15.69,15.43,11-.57,11.68-13,11.7-13.53a.63.63,0,0,1,.67-.62.64.64,0,0,1,.61.68c0,.14-.71,14.15-12.92,14.77C181.57,205.27,181.3,205.27,181,205.27Z" transform="translate(-71.16 -98.85)"/><path d="M157.63,200.77a3.18,3.18,0,1,1-3.18-3.24A3.21,3.21,0,0,1,157.63,200.77Z" transform="translate(-71.16 -98.85)"/><path d="M151.26,216.54a3.19,3.19,0,1,1-3.19-3.24A3.21,3.21,0,0,1,151.26,216.54Z" transform="translate(-71.16 -98.85)"/><path d="M171.58,224a3.18,3.18,0,1,1-3.18-3.23A3.2,3.2,0,0,1,171.58,224Z" transform="translate(-71.16 -98.85)"/><path d="M157.4,232.81a3.24,3.24,0,0,1-1.77,4.2,3.18,3.18,0,0,1-4.14-1.8,3.24,3.24,0,0,1,1.78-4.2A3.15,3.15,0,0,1,157.4,232.81Z" transform="translate(-71.16 -98.85)"/><path d="M185,238.78a3.19,3.19,0,1,1-3.18-3.23A3.21,3.21,0,0,1,185,238.78Z" transform="translate(-71.16 -98.85)"/><path d="M205.31,245.44a3.19,3.19,0,1,1-3.19-3.23A3.21,3.21,0,0,1,205.31,245.44Z" transform="translate(-71.16 -98.85)"/><path d="M209.39,204a3.19,3.19,0,1,1-3.18-3.23A3.21,3.21,0,0,1,209.39,204Z" transform="translate(-71.16 -98.85)"/><path d="M186.29,259.42a3.19,3.19,0,1,1-3.18-3.23A3.21,3.21,0,0,1,186.29,259.42Z" transform="translate(-71.16 -98.85)"/><path d="M166.68,269.44a3.19,3.19,0,1,1-3.19-3.23A3.21,3.21,0,0,1,166.68,269.44Z" transform="translate(-71.16 -98.85)"/><path d="M164.39,251.19a3.18,3.18,0,1,1-3.18-3.23A3.21,3.21,0,0,1,164.39,251.19Z" transform="translate(-71.16 -98.85)"/><path d="M195.76,224.84a3.19,3.19,0,1,1-3.19-3.23A3.21,3.21,0,0,1,195.76,224.84Z" transform="translate(-71.16 -98.85)"/><path d="M213.36,220.76a3.19,3.19,0,1,1-3.19-3.23A3.21,3.21,0,0,1,213.36,220.76Z" transform="translate(-71.16 -98.85)"/><path d="M202.12,264.77a3.18,3.18,0,1,1-3.18-3.24A3.21,3.21,0,0,1,202.12,264.77Z" transform="translate(-71.16 -98.85)"/><path d="M203,290.34a3.19,3.19,0,1,1-3.19-3.23A3.21,3.21,0,0,1,203,290.34Z" transform="translate(-71.16 -98.85)"/><path d="M186.77,279.67a3.25,3.25,0,0,1-1.77,4.2,3.17,3.17,0,0,1-4.14-1.8,3.24,3.24,0,0,1,1.78-4.2A3.15,3.15,0,0,1,186.77,279.67Z" transform="translate(-71.16 -98.85)"/><path d="M165.1,289.14a3.24,3.24,0,0,1-1.78,4.2,3.16,3.16,0,0,1-4.13-1.8,3.24,3.24,0,0,1,1.77-4.2A3.17,3.17,0,0,1,165.1,289.14Z" transform="translate(-71.16 -98.85)"/><path d="M229.57,392.28l-.6-3.64-.05-.38-.43-2.57-.42-2.54-1.73-10.52-.5-3.11-.38-2.24-.05-.33-2.23-13.62-.15-1-.2-.84-.18-.74-1-4.5-2-8.81-.58-2.52-1-4.41-1.18-5.27-.8-3.61-.58-2.52-2.18-9.76-.8-3.56-.38-1.73-.17-.79-1.53-6.85c-24,7.2-49.48,2.93-60.77.36-.5,2.31-1.05,4.73-1.6,7.18-.13.53-.25,1.06-.38,1.6l-.6,2.52c-.08.41-.18.79-.28,1.2-.92,4-1.9,8.07-2.86,12.12-.2.84-.37,1.68-.57,2.49-.1.43-.2.84-.3,1.28-.4,1.78-.81,3.56-1.21,5.29-.5,2.32-1,4.58-1.43,6.82-.17.84-.35,1.66-.5,2.47-.45,2.27-.85,4.49-1.2,6.62-.3,1.86-.55,3.65-.75,5.4-.08.54-.13,1.07-.21,1.58-.07.87-.17,1.71-.25,2.55,0,.12,0,.23,0,.35l-1.41,11.61-.22,1.81-.3,2.52-.13,1.07L134,386l-.3,2.54-.1.82-.35,2.92Z" transform="translate(-71.16 -98.85)"/><path class="cls-2" d="M200.5,148.63s3.91-5,6.81-.87-1.2,16.43-8.31,13.43Z" transform="translate(-71.16 -98.85)"/><path class="cls-5" d="M200.55,157.4a.61.61,0,0,0,.58-.42c1.1-3.79,5.17-5.33,5.21-5.35a.57.57,0,0,0,.35-.74.61.61,0,0,0-.77-.34c-.19.07-4.68,1.75-5.95,6.11a.59.59,0,0,0,.42.72Z" transform="translate(-71.16 -98.85)"/><path class="cls-5" d="M204.66,155.49a.62.62,0,0,0,.32-.09.57.57,0,0,0,.18-.8,5.38,5.38,0,0,0-2.25-1.76.62.62,0,0,0-.8.29.58.58,0,0,0,.31.77,4.32,4.32,0,0,1,1.73,1.32A.6.6,0,0,0,204.66,155.49Z" transform="translate(-71.16 -98.85)"/><path class="cls-4" d="M198.74,161.11a4.2,4.2,0,1,0,4.07-1.33A.8.8,0,0,1,203,159a5,5,0,0,1,2.16,1.08,5.06,5.06,0,1,1-7.15.72Z" transform="translate(-71.16 -98.85)"/><path class="cls-2" d="M170.37,174.31v15.06s6.9,5.4,12.28,5.87,7.23-6,7.23-6v-14Z" transform="translate(-71.16 -98.85)"/><path class="cls-6" d="M170.37,175.78v6c3.61,4.07,10,5.51,19.51,4.09v-9.14Z" transform="translate(-71.16 -98.85)"/><path class="cls-2" d="M202.85,154.35c-.17,1.46-.37,2.94-.63,4.41-1.71,9.79-7.81,20.37-15.51,22.15-16.64,3.83-23.55-9.44-26.21-19.22-.29-1.09.26-2.34,0-3.62-.55-3-1.77-6.52-2-9.93-.19-2.37-.33-4.71-.43-6.82a13.86,13.86,0,0,1,8.44-13.56c7.64-3.08,19.26-5.53,30.26,1a14,14,0,0,1,6.7,11.8A105.34,105.34,0,0,1,202.85,154.35Z" transform="translate(-71.16 -98.85)"/><path class="cls-7" d="M181.75,161.93a.66.66,0,0,1-.11-1.3l2.22-.38L180.81,152a.65.65,0,1,1,1.21-.46l3.6,9.76-3.76.64Z" transform="translate(-71.16 -98.85)"/><path d="M189.71,151c0,1.45.73,2.62,1.64,2.62S193,152.44,193,151s-.73-2.62-1.64-2.62S189.71,149.55,189.71,151Z" transform="translate(-71.16 -98.85)"/><path d="M171.6,151c0,1.45.73,2.62,1.64,2.62s1.63-1.17,1.63-2.62-.73-2.62-1.63-2.62S171.6,149.55,171.6,151Z" transform="translate(-71.16 -98.85)"/><path d="M196.17,144.13a31.15,31.15,0,0,0-6.82-.59c-.75,0-1.35.6-1.24,1.2h0a1,1,0,0,0,1.19.76c1.93-.14,7-.11,9.34.6a1.25,1.25,0,0,0-.49-1A3.94,3.94,0,0,0,196.17,144.13Z" transform="translate(-71.16 -98.85)"/><path d="M169.82,144.44a31.16,31.16,0,0,1,6.81-.68c.75,0,1.36.58,1.26,1.18v0a1.05,1.05,0,0,1-1.18.77c-1.94-.12-7,0-9.34.73a1.23,1.23,0,0,1,.48-1A3.88,3.88,0,0,1,169.82,144.44Z" transform="translate(-71.16 -98.85)"/><path class="cls-4" d="M189.71,165.84c-.48,2.3-2.07,6.53-7.43,6.53s-6.89-3.87-7.41-6.53Z" transform="translate(-71.16 -98.85)"/><path class="cls-2" d="M182.35,176.32a6.28,6.28,0,0,0,3-.88.65.65,0,0,0,.2-.89.63.63,0,0,0-.87-.21h0a5,5,0,0,1-2.31.7,5.27,5.27,0,0,1-2.43-.7.64.64,0,0,0-.87.22.65.65,0,0,0,.22.88A6.4,6.4,0,0,0,182.35,176.32Z" transform="translate(-71.16 -98.85)"/><path d="M203.52,152.81c-.15.14-.3.09-.44-.17-2.2-3.93-.14-11.78-6.64-14.79a13.92,13.92,0,0,1-6.73-7,14.08,14.08,0,0,1-4.08,3.78,116.13,116.13,0,0,1-15.26,7.54,25,25,0,0,0-5.1,2.61l.13,0s-2.15,3.55-.57,9.06-.45,14.62-4,16.72c.06-.15,2.68-6.45,1.2-11.58-.85-2.94-.84-7.63-1.65-10.43-.9-.63-3-1.69-3.67-2.11-.2-2.42-.35-4.8-.45-6.95a14.11,14.11,0,0,1,8.89-13.82c8.06-3.15,20.3-5.64,31.9,1a14.2,14.2,0,0,1,7.07,12A104.87,104.87,0,0,1,203.52,152.81Z" transform="translate(-71.16 -98.85)"/><path class="cls-2" d="M160.43,148.59s-4.55-5.6-7.23-1.57,1.28,16.41,7.84,13.5Z" transform="translate(-71.16 -98.85)"/><path class="cls-4" d="M160.61,160.72a4.37,4.37,0,0,1,.37,3.05,4.23,4.23,0,0,1-5.14,3.12,4.31,4.31,0,0,1-.71-8.08,4.16,4.16,0,0,1,1.85-.39,1,1,0,0,0,.05-.82,4.88,4.88,0,0,0-2.36.51,5.1,5.1,0,1,0,7.1,5.86,5.18,5.18,0,0,0-.33-3.4Z" transform="translate(-71.16 -98.85)"/><path class="cls-5" d="M159.44,156.39a.56.56,0,0,1-.53-.41,8.66,8.66,0,0,0-4.81-5.19.57.57,0,0,1-.32-.73.54.54,0,0,1,.71-.32,9.59,9.59,0,0,1,5.49,5.93.57.57,0,0,1-.39.7Z" transform="translate(-71.16 -98.85)"/><path class="cls-5" d="M155.65,154.53a.55.55,0,0,1-.3-.09.56.56,0,0,1-.17-.77,5.08,5.08,0,0,1,2.09-1.71.54.54,0,0,1,.73.29.57.57,0,0,1-.28.74,4,4,0,0,0-1.6,1.29A.57.57,0,0,1,155.65,154.53Z" transform="translate(-71.16 -98.85)"/><path d="M309.31,275.69c-1.68,15.51-11.65,50.15-18.56,56.94-9,8.84-38.57,27.44-54,37C234,371.33,247,382.78,247,382.78S288,365,303.59,351c4.42-4,13.4-16.46,23.53-40.26,3.07-7.22,10.52-21.78,10.13-31.27C336.81,268.56,319.71,270.36,309.31,275.69Z" transform="translate(-71.16 -98.85)"/><path class="cls-2" d="M277.38,364.77s-11.13,4.29-15.07,9-9.16,8.73-7.89,10.59,7-3.58,7-3.58,1.58,6,7.18,6.62,16.21-10.48,16.21-10.48Z" transform="translate(-71.16 -98.85)"/><path class="cls-3" d="M387.24,319c0,1,0,2.14,0,3.46s0,2.77-.08,4.37c0,1.09-.07,2.25-.11,3.47,0,1-.07,2.08-.11,3.18s-.1,2.29-.16,3.48c-.77,16.24-2.65,38.67-6.77,56.65H293.4c2.89-13.07,7.3-33.68,10.81-60.42.15-1.12.29-2.26.44-3.4s.28-2.31.42-3.48c.08-.62.15-1.24.22-1.87l.18-1.54c.16-1.44.31-2.86.44-4.25.11-1.16.21-2.31.3-3.43,1.49-18,1-31.45,3.1-39.52,2.48-9.4,31.46-20.17,31.46-20.17l18.15,1s17.31,5.73,26.56,14,1.52,32.87,1.74,46.84C387.23,317.79,387.23,318.35,387.24,319Z" transform="translate(-71.16 -98.85)"/><path d="M387.21,322.45a199.19,199.19,0,0,1-24.14,1.35,354,354,0,0,1-57.16-5.16c.11-1.16.21-2.31.3-3.43,7,1.25,47.31,8,81,3.78C387.24,320,387.23,321.13,387.21,322.45Z" transform="translate(-71.16 -98.85)"/><path d="M387.13,326.82c0,1.09-.07,2.25-.11,3.47a200.27,200.27,0,0,1-23.95,1.32,353.06,353.06,0,0,1-58-5.31c.08-.62.15-1.24.22-1.87l.18-1.54C309.48,323.63,351.9,331.23,387.13,326.82Z" transform="translate(-71.16 -98.85)"/><path d="M386.91,333.47c-.05,1.13-.1,2.29-.16,3.48a197.05,197.05,0,0,1-25,1.46,352.61,352.61,0,0,1-57.55-5.23c.15-1.12.29-2.26.44-3.4C310.9,330.91,352.56,338,386.91,333.47Z" transform="translate(-71.16 -98.85)"/><path d="M346,273.2c9,0,17.36-9.74,17.72-10.16a.66.66,0,0,0-.07-.92.64.64,0,0,0-.9.07c-.09.11-8.81,10.31-17.52,9.69a.65.65,0,0,0-.68.6.63.63,0,0,0,.59.69Z" transform="translate(-71.16 -98.85)"/><path d="M353.83,382.75a.64.64,0,0,0,.63-.57.64.64,0,0,0-.56-.72c-23.32-2.72-33-43.7-33.07-44.11a.64.64,0,0,0-.76-.49.65.65,0,0,0-.48.78c.4,1.72,10,42.28,34.17,45.1Z" transform="translate(-71.16 -98.85)"/><path d="M344.54,370.35a.64.64,0,0,0,.55-.31.66.66,0,0,0-.21-.89c-12.4-7.76-14.25-19.2-14.26-19.32a.64.64,0,1,0-1.26.2c.07.49,1.92,12.13,14.85,20.22A.58.58,0,0,0,344.54,370.35Z" transform="translate(-71.16 -98.85)"/><ellipse cx="280.62" cy="114.08" rx="25.54" ry="25.93"/><path d="M326.66,208.28s-7.23-2-6.28-9.16c.81-6.06,7.83-2.13,7.21-6.87s-2-9.05,4.06-10.24c5.28-1,5.37,2.64,12.31-2.69,8.2-6.3,14.49,8.29,21.81,8.73,10.79.64,12.15,6.84,13.21,11.8s-3.09,8.43-3.09,8.43Z" transform="translate(-71.16 -98.85)"/><path class="cls-2" d="M330.53,220.19s-4-5.48-7-.95,1.24,17.9,8.61,14.64Z" transform="translate(-71.16 -98.85)"/><path class="cls-8" d="M330.48,229.74a.63.63,0,0,1-.6-.46c-1.14-4.13-5.35-5.8-5.4-5.82a.63.63,0,0,1,.45-1.18c.19.08,4.84,1.9,6.15,6.66a.63.63,0,0,1-.43.78A.5.5,0,0,1,330.48,229.74Z" transform="translate(-71.16 -98.85)"/><path class="cls-8" d="M326.23,227.66a.61.61,0,0,1-.34-.1.64.64,0,0,1-.19-.87,5.82,5.82,0,0,1,2.34-1.91.61.61,0,0,1,.82.32.63.63,0,0,1-.31.83,4.56,4.56,0,0,0-1.8,1.44A.61.61,0,0,1,326.23,227.66Z" transform="translate(-71.16 -98.85)"/><path class="cls-2" d="M359.88,245.22v13.31s-5.39,5.86-10.67,6.32-8.49-5.9-8.49-5.9V246.16Z" transform="translate(-71.16 -98.85)"/><path class="cls-8" d="M359.88,245.22v5.91c-3.55,4-9.84,5-19.16,3.59v-8.56Z" transform="translate(-71.16 -98.85)"/><path class="cls-2" d="M373.69,211.06a131,131,0,0,1-1.7,16.8c-.24,1.29-.51,2.51-.82,3.59-2.76,9.8-9.65,26.61-29,19.61-8.53-3.09-12.48-12.73-14.24-22.54a95.61,95.61,0,0,1-1.29-18.2,13.91,13.91,0,0,1,6.94-11.82c11.4-6.56,23.42-4.11,31.34-1A13.84,13.84,0,0,1,373.69,211.06Z" transform="translate(-71.16 -98.85)"/><path d="M350.53,220.46v1a7.86,7.86,0,0,0,2.29,5.59,7.55,7.55,0,0,0,5.42,2.27h.25a6.9,6.9,0,0,0,4.8-2.15,7.77,7.77,0,0,0,2.23-5.51v-1.24a2.84,2.84,0,0,0-.18-1,2.73,2.73,0,0,0-.62-1,2.68,2.68,0,0,0-1.92-.81h-9.56a2.71,2.71,0,0,0-2.45,1.57,2.78,2.78,0,0,0-.26,1.11Zm1.13,0a1.6,1.6,0,0,1,1.58-1.62h9.56a1.6,1.6,0,0,1,1.59,1.62v1.24a6.62,6.62,0,0,1-1.89,4.69,5.83,5.83,0,0,1-4,1.83h-.23a6.49,6.49,0,0,1-4.63-1.94,6.74,6.74,0,0,1-1.95-4.78Z" transform="translate(-71.16 -98.85)"/><path d="M331.39,220.46v1a7.91,7.91,0,0,0,2.29,5.59,7.58,7.58,0,0,0,5.42,2.27h.26a6.86,6.86,0,0,0,4.79-2.15,7.78,7.78,0,0,0,2.24-5.51v-1.24a.13.13,0,0,0,0-.06,2.48,2.48,0,0,0-.23-1.05,2.69,2.69,0,0,0-2.48-1.65h-9.56a2.72,2.72,0,0,0-2.09,1,2.79,2.79,0,0,0-.52,1A2.55,2.55,0,0,0,331.39,220.46Zm1.13,0a1.6,1.6,0,0,1,1.59-1.62h9.56a1.6,1.6,0,0,1,1.59,1.62v1.24a6.62,6.62,0,0,1-1.89,4.69,5.84,5.84,0,0,1-4,1.83h-.24a6.47,6.47,0,0,1-4.62-1.94,6.75,6.75,0,0,1-2-4.78Z" transform="translate(-71.16 -98.85)"/><path d="M372.33,217.23a13.23,13.23,0,0,0-6.48,1.28c-.26.12-.94.57-1,.59l.54,1s.75-.45,1.05-.59a11.55,11.55,0,0,1,5.86-1.1Z" transform="translate(-71.16 -98.85)"/><path d="M351.29,220.5l.37-1.08a11.12,11.12,0,0,0-3.39-.58,7.59,7.59,0,0,0-3.09.6l.49,1a6.69,6.69,0,0,1,2.6-.48A10.36,10.36,0,0,1,351.29,220.5Z" transform="translate(-71.16 -98.85)"/><path d="M327.45,217.51v1.15a14,14,0,0,1,4.52,1.27l.49-1A14.84,14.84,0,0,0,327.45,217.51Z" transform="translate(-71.16 -98.85)"/><path d="M340.24,221.92c0,1.42-.72,2.57-1.61,2.57s-1.61-1.15-1.61-2.57.72-2.57,1.61-2.57S340.24,220.5,340.24,221.92Z" transform="translate(-71.16 -98.85)"/><path d="M359.09,221.92c0,1.42-.72,2.57-1.61,2.57s-1.61-1.15-1.61-2.57.72-2.57,1.61-2.57S359.09,220.5,359.09,221.92Z" transform="translate(-71.16 -98.85)"/><path d="M333.39,214s6.7-2.69,11.86-.43l-.43,2.43a21.49,21.49,0,0,0-11.06.81C333.42,215.72,333,215.18,333.39,214Z" transform="translate(-71.16 -98.85)"/><path d="M364.06,214s-6.7-2.69-11.86-.43l.43,2.43a21.5,21.5,0,0,1,11.06.81C364,215.72,364.5,215.18,364.06,214Z" transform="translate(-71.16 -98.85)"/><path class="cls-8" d="M349,232.7a6.79,6.79,0,0,0,2.26-.48.64.64,0,0,0,.34-.83.63.63,0,0,0-.81-.35,3.62,3.62,0,0,1-2.5.24.67.67,0,0,1-.31-.58c-.22-2.21.37-9.61.38-9.68a.62.62,0,1,0-1.24-.11,93.06,93.06,0,0,0-.37,9.92,1.94,1.94,0,0,0,.9,1.54A2.62,2.62,0,0,0,349,232.7Z" transform="translate(-71.16 -98.85)"/><path class="cls-4" d="M341.33,235.91c.51,2.59,2.2,7.37,7.89,7.37s7.32-4.36,7.87-7.37Z" transform="translate(-71.16 -98.85)"/><path class="cls-8" d="M349.15,246.58a6.38,6.38,0,0,0,3-.86.63.63,0,0,0,.21-.87.61.61,0,0,0-.85-.21,5.22,5.22,0,0,1-2.39.68,5,5,0,0,1-2.27-.68.61.61,0,0,0-.85.21.63.63,0,0,0,.2.87A6.23,6.23,0,0,0,349.15,246.58Z" transform="translate(-71.16 -98.85)"/><path d="M329.89,224.4c-.47-2.61-.93-6-.59-7.69.6-3.05,3.09-4.85,2.26-7.79s2.23-6.12,4.49-6.64,7.53.61,12.71-1.89c5-2.39,13.56-.68,15,2.54,1.69,3.91-.61,4.28,4,8.5,1.84,1.69-.35,6.06-.66,8.9a19.53,19.53,0,0,0-.11,3.36l0,.71h5.54c.61-4.41,1-9.27,1.15-13.34A13.84,13.84,0,0,0,365,197.48c-7.92-3.09-19.94-5.54-31.34,1a13.93,13.93,0,0,0-6.94,11.82,102.79,102.79,0,0,0,.67,14.08Z" transform="translate(-71.16 -98.85)"/><path class="cls-2" d="M370.09,226.83a23.91,23.91,0,0,1,.33-4.39c.35-2,.92-3.78,2.92-4.61,1.6-.66,3.32-.68,4.54,1.16,3,4.53-.34,18.62-7.71,15.36Z" transform="translate(-71.16 -98.85)"/><path class="cls-8" d="M371.6,230.25a.66.66,0,0,0,.5-.58c.32-4.27,4.13-6.75,4.17-6.78a.63.63,0,0,0,.19-.87.62.62,0,0,0-.85-.2c-.18.11-4.38,2.83-4.75,7.76a.63.63,0,0,0,.57.68Z" transform="translate(-71.16 -98.85)"/><path class="cls-8" d="M375.37,227.36a.6.6,0,0,0,.31-.17.63.63,0,0,0,0-.89,5.61,5.61,0,0,0-2.66-1.41.63.63,0,0,0-.27,1.23,4.47,4.47,0,0,1,2,1.06A.62.62,0,0,0,375.37,227.36Z" transform="translate(-71.16 -98.85)"/><path d="M381.8,267.59c-9.1,14-43.91,62.39-51.77,68-10.23,7.32-38.1,17.72-54.11,28.57-5.44,3.69,7.41,14.12,7.41,14.12s39-11.13,56.59-22.52c5-3.22,25.64-24.25,38.82-42.9,4.52-6.38,11.86-15.26,12.92-24.69C392.89,277.32,389.53,271.51,381.8,267.59Z" transform="translate(-71.16 -98.85)"/><rect x="130.66" y="280.88" width="113.48" height="13.87" rx="2.31"/><path class="cls-3" d="M201.85,393.6l-21.33-81.1a7.15,7.15,0,0,1,6.83-9h46.93a7.09,7.09,0,0,1,6.81,5.24l23.48,84.89Z" transform="translate(-71.16 -98.85)"/><path d="M241.09,308.71l23.29,84.19h5.36l-23.29-84.19a7.09,7.09,0,0,0-6.8-5.24h-5.37A7.09,7.09,0,0,1,241.09,308.71Z" transform="translate(-71.16 -98.85)"/><path d="M229,352.17c1.22,5.35-2.06,9.68-7.33,9.68s-10.53-4.33-11.75-9.68,2.07-9.69,7.33-9.69S227.8,346.82,229,352.17Z" transform="translate(-71.16 -98.85)"/><path d="M435.18,396.49v.25h-364v-.25c0-2.93,3-5.3,6.76-5.3h350.5C432.16,391.19,435.18,393.56,435.18,396.49Z" transform="translate(-71.16 -98.85)"/><path d="M316,301l2.91-7.63a.94.94,0,0,1,.33-.41,1,1,0,0,1,.49-.17.83.83,0,0,1,.57.1.92.92,0,0,1,.42.43l1,2.43,1.13,2.84.9,2.38a.92.92,0,0,1,0,.71.95.95,0,0,1-1.22.49.89.89,0,0,1-.49-.5l-.76-1.74c-1,0-1.93,0-2.89,0l-.63,1.75a1,1,0,0,1-.51.49.85.85,0,0,1-.7,0,.89.89,0,0,1-.5-.49A.85.85,0,0,1,316,301Zm4.54-2.94-.69-1.9-.74,1.9Z" transform="translate(-71.16 -98.85)"/><path d="M325.13,301.9a.94.94,0,0,1-.28-.65c0-.9,0-2.17-.05-3.82l0-3.72a.92.92,0,0,1,.26-.65.9.9,0,0,1,.64-.28.88.88,0,0,1,.64.26.92.92,0,0,1,.28.65l0,3.46,0,3.33h3.65a.89.89,0,0,1,.64.25.83.83,0,0,1,.27.63.92.92,0,0,1-.91.91l-2.23,0h-2.24A.91.91,0,0,1,325.13,301.9Z" transform="translate(-71.16 -98.85)"/><path d="M332.56,302.23a.91.91,0,0,1-.67-.18.87.87,0,0,1-.35-.58.92.92,0,0,1,.17-.68l2.32-3.26c-1-1.44-1.82-2.59-2.33-3.43a.78.78,0,0,1-.14-.64.82.82,0,0,1,.35-.54.83.83,0,0,1,1.18.23c.49.7,1.15,1.69,2,3l2-2.95a1,1,0,0,1,.61-.36.87.87,0,0,1,.66.18.9.9,0,0,1,.18,1.26l-2.29,3.35c.94,1.23,1.75,2.35,2.42,3.34a.82.82,0,0,1,.12.64.87.87,0,0,1-.36.54.81.81,0,0,1-.64.12.83.83,0,0,1-.54-.37c-.61-.81-1.29-1.76-2.06-2.83l-2,2.84A.9.9,0,0,1,332.56,302.23Z" transform="translate(-71.16 -98.85)"/></svg>