<svg xmlns="http://www.w3.org/2000/svg" viewBox="0 0 662.4 368.02"><defs><style>.cls-1,.cls-4{fill:#fff;}.cls-1,.cls-7{stroke:#000;stroke-miterlimit:10;}.cls-2{fill:#925b4c;}.cls-3{fill:#75493d;}.cls-5{fill:#704c45;}.cls-6{opacity:0.2;}.cls-7{fill:none;}.cls-8{fill:#c78976;}.cls-9{opacity:0.3;}.cls-10{fill:#e0e0e0;}</style></defs><title>partnerup_lp_1</title><g id="Character_3" data-name="Character 3"><path d="M376.13,319.94s-35.53,4.21-48.67,14.71a45,45,0,0,0-5.77,5.62,60.22,60.22,0,0,0-14.29,34.15l-4.76,52.25.38,8.63a25.27,25.27,0,0,0,25.16,24.15l146.82,1s19.28-21.52,14.23-54.9c-1.19-7.85-3.09-34.77-10.53-51.34-3.93-8.76-9.95-19.58-25.84-23.8l-37.09-10.49Z" transform="translate(-56.38 -102.79)"/><path class="cls-1" d="M342.83,362.44a5.73,5.73,0,0,1-.3-1.17c-.16-.75-.41-1.84-.74-3.18a68.65,68.65,0,0,0-3.44-10.2,67.57,67.57,0,0,0-5.06-9.49c-.75-1.17-1.37-2.09-1.82-2.73a6.62,6.62,0,0,1-.64-1,5.21,5.21,0,0,1,.81.9c.49.6,1.16,1.5,1.95,2.64a56.73,56.73,0,0,1,5.24,9.5A57.4,57.4,0,0,1,342.15,358c.29,1.36.48,2.47.58,3.24A4.91,4.91,0,0,1,342.83,362.44Z" transform="translate(-56.38 -102.79)"/><path class="cls-1" d="M349,422c-.15,0-1.72-11.4-3.51-25.51s-3.13-25.56-3-25.57,1.71,11.4,3.51,25.51S349.14,422,349,422Z" transform="translate(-56.38 -102.79)"/><path class="cls-1" d="M342.5,366.93a11.31,11.31,0,0,1-2.5-1.06,45.41,45.41,0,0,1-10.69-7.53,10.62,10.62,0,0,1-1.84-2,20.31,20.31,0,0,1,2.08,1.73c1.27,1.08,3.05,2.53,5.13,4s4,2.65,5.49,3.47A18.38,18.38,0,0,1,342.5,366.93Z" transform="translate(-56.38 -102.79)"/><path class="cls-1" d="M437.64,376.6a10.76,10.76,0,0,1,0-1.79,19.69,19.69,0,0,1,.14-2.09c.09-.81.15-1.74.35-2.75a32.23,32.23,0,0,1,.67-3.3c.25-1.19.65-2.42,1-3.72a46.58,46.58,0,0,1,8.65-15.36c.91-1,1.75-2,2.63-2.83a33.33,33.33,0,0,1,2.48-2.28c.76-.7,1.52-1.23,2.17-1.73a18.05,18.05,0,0,1,1.71-1.2,12.09,12.09,0,0,1,1.53-.92,11.61,11.61,0,0,1-1.41,1.08c-.47.33-1,.74-1.65,1.27s-1.37,1.07-2.11,1.77-1.59,1.44-2.41,2.31-1.68,1.83-2.57,2.84a48.59,48.59,0,0,0-8.56,15.21c-.41,1.28-.83,2.49-1.09,3.66s-.54,2.26-.73,3.26-.3,1.92-.42,2.73-.19,1.49-.23,2.07A13.12,13.12,0,0,1,437.64,376.6Z" transform="translate(-56.38 -102.79)"/><path class="cls-1" d="M423,436.61a5.41,5.41,0,0,1-.11-1.84,5.55,5.55,0,0,1,2.63-4.3l0,0A45.38,45.38,0,0,1,440.54,420l-.15.21c.2-1.88.41-3.83.56-5.84a172.13,172.13,0,0,0,.3-22c-.13-2.81-.33-5.09-.44-6.66-.06-.74-.11-1.34-.15-1.81a2.82,2.82,0,0,1,0-.64,2.66,2.66,0,0,1,.12.63c.07.46.15,1.06.25,1.8.17,1.57.43,3.84.61,6.66a154.76,154.76,0,0,1-.15,22.07c-.15,2-.36,4-.57,5.86l0,.15-.14.06a46.49,46.49,0,0,0-15,10.23h0l0,0a5.31,5.31,0,0,0-1.95,2,5.46,5.46,0,0,0-.65,2C422.93,436,423.07,436.6,423,436.61Z" transform="translate(-56.38 -102.79)"/><path class="cls-1" d="M464.9,432.38c-.09.05-.85-1.39-2.52-3.39a25.87,25.87,0,0,0-7.84-6.32,25.12,25.12,0,0,0-5.18-2,19.67,19.67,0,0,0-4.5-.59c-2.6,0-4.21.3-4.22.2a4.64,4.64,0,0,1,1.11-.27,20.46,20.46,0,0,1,3.11-.3,18.07,18.07,0,0,1,4.61.5,23.75,23.75,0,0,1,5.31,2,24.36,24.36,0,0,1,7.89,6.55,20.16,20.16,0,0,1,1.73,2.59A4.79,4.79,0,0,1,464.9,432.38Z" transform="translate(-56.38 -102.79)"/><path class="cls-1" d="M464.18,418.71c0,.09-1.22-.47-3.25-1a24.72,24.72,0,0,0-3.6-.62,34.39,34.39,0,0,0-4.49-.12,40.79,40.79,0,0,0-8.06,1.23c-2,.53-3.25,1-3.28.89a3.24,3.24,0,0,1,.82-.4,22.39,22.39,0,0,1,2.36-.84,33.72,33.72,0,0,1,8.14-1.4,31.9,31.9,0,0,1,4.56.16,22.71,22.71,0,0,1,3.65.74,14,14,0,0,1,1.35.46,7.19,7.19,0,0,1,1,.42A3.13,3.13,0,0,1,464.18,418.71Z" transform="translate(-56.38 -102.79)"/><path d="M436.35,260.7c-2.93-12.44-8.16-25.15-18.48-32.71-9.18-6.73-22.58-9.29-33.94-8.45-5.59.42-11.83,3.21-16.62,6.13-6.56,4-9.15,11.77-12.15,18.85-6,14.19-4.57,33.08,0,38.2l59.39,28.94c10.17-5.72,21.18-13.42,23.55-24.83C439.69,279.05,438.17,268.43,436.35,260.7Z" transform="translate(-56.38 -102.79)"/><path class="cls-2" d="M413.86,238.63,376.76,229c-11.9-1.34-19.91,13.27-20.75,25.21-.92,13.26-1.53,29.5,0,39.41,3,19.93,18.28,24.66,18.28,24.66s0,17.32.11,23.23l17.31,52.72,24.61-52.72,3.79-95.71A7,7,0,0,0,413.86,238.63Z" transform="translate(-56.38 -102.79)"/><path d="M362.64,270.26a2.56,2.56,0,0,0,2.45,2.59,2.44,2.44,0,0,0,2.64-2.28,2.55,2.55,0,0,0-2.44-2.6A2.45,2.45,0,0,0,362.64,270.26Z" transform="translate(-56.38 -102.79)"/><path d="M359.48,262.66c.31.33,2.26-1.09,5-1.06s4.76,1.41,5.06,1.08c.14-.15-.17-.75-1.05-1.4a7,7,0,0,0-4-1.27,6.75,6.75,0,0,0-4,1.25C359.61,261.91,359.32,262.51,359.48,262.66Z" transform="translate(-56.38 -102.79)"/><path d="M387.58,270.26a2.55,2.55,0,0,0,2.44,2.59,2.45,2.45,0,0,0,2.65-2.28,2.56,2.56,0,0,0-2.44-2.6A2.44,2.44,0,0,0,387.58,270.26Z" transform="translate(-56.38 -102.79)"/><path d="M386.49,263.35c.31.34,2.26-1.08,5-1.05s4.76,1.41,5.06,1.08c.14-.15-.17-.75-1.05-1.4a7.06,7.06,0,0,0-4-1.28,6.75,6.75,0,0,0-4,1.26C386.62,262.6,386.33,263.2,386.49,263.35Z" transform="translate(-56.38 -102.79)"/><path d="M376.37,283.67c0-.16-1.69-.47-4.45-.84-.71-.08-1.37-.22-1.48-.7a3.49,3.49,0,0,1,.48-2.08l2.11-5.33c2.93-7.58,5.06-13.83,4.76-13.94s-2.94,5.94-5.87,13.53c-.71,1.87-1.38,3.65-2,5.36a4,4,0,0,0-.39,2.75,1.75,1.75,0,0,0,1.15,1,4.25,4.25,0,0,0,1.19.18C374.63,283.8,376.36,283.82,376.37,283.67Z" transform="translate(-56.38 -102.79)"/><path class="cls-3" d="M374.22,318.41l.11,5c19.92,2,26.6-11.89,26.6-11.89A50.58,50.58,0,0,1,374.22,318.41Z" transform="translate(-56.38 -102.79)"/><path class="cls-3" d="M385.42,288.86a4.42,4.42,0,0,0-3.66-2,5.75,5.75,0,0,0-5.25,2.56,3.56,3.56,0,0,0-.25,2.57c.19.44,0,.23.38.53a10,10,0,0,0,4.09,2.57,4.31,4.31,0,0,0,4.56-1.64A4.38,4.38,0,0,0,385.42,288.86Z" transform="translate(-56.38 -102.79)"/><path d="M384.45,285.62c-.45,0-.48,3-3,5.05s-5.74,1.76-5.77,2.17c0,.19.71.59,2.05.63a7.37,7.37,0,0,0,4.81-1.64,6.45,6.45,0,0,0,2.36-4.24C385,286.35,384.65,285.61,384.45,285.62Z" transform="translate(-56.38 -102.79)"/><path d="M385.25,254.55c.27.75,3,.41,6.24.82s5.82,1.31,6.25.64c.2-.32-.25-1-1.3-1.75a10.91,10.91,0,0,0-9.51-1.12C385.74,253.61,385.14,254.19,385.25,254.55Z" transform="translate(-56.38 -102.79)"/><path d="M360.54,253.17c.48.62,2.38,0,4.65,0s4.21.45,4.65-.2c.2-.31-.1-.94-.94-1.54a6.72,6.72,0,0,0-7.49.18C360.6,252.22,360.33,252.86,360.54,253.17Z" transform="translate(-56.38 -102.79)"/><path class="cls-2" d="M414.72,270c.27-.12,11.08-3.56,11,7.56s-11.24,8.72-11.26,8.4S414.72,270,414.72,270Z" transform="translate(-56.38 -102.79)"/><path class="cls-3" d="M417.89,281.79s.19.14.51.29a1.9,1.9,0,0,0,1.45,0c1.18-.42,2.18-2.27,2.26-4.27a6.51,6.51,0,0,0-.52-2.78,2.21,2.21,0,0,0-1.45-1.5,1,1,0,0,0-1.14.52c-.15.31-.09.53-.14.55s-.24-.19-.15-.65a1.22,1.22,0,0,1,.45-.69,1.46,1.46,0,0,1,1.07-.27,2.71,2.71,0,0,1,2,1.74,6.63,6.63,0,0,1,.64,3.1c-.09,2.24-1.26,4.33-2.87,4.78a2.13,2.13,0,0,1-1.77-.31C417.9,282.06,417.85,281.81,417.89,281.79Z" transform="translate(-56.38 -102.79)"/><path d="M421.56,285.5c.05-.06.48.46.41,1.46a2.05,2.05,0,0,1-.78,1.56,2.32,2.32,0,0,1-2.13.15,2.24,2.24,0,0,1-1.48-1.54,2.36,2.36,0,0,1,.3-1.71c.55-.86,1.25-.94,1.25-.88s-.53.3-.9,1.07a2,2,0,0,0-.15,1.39,1.79,1.79,0,0,0,1.18,1.14,1.84,1.84,0,0,0,1.63-.05,1.78,1.78,0,0,0,.69-1.18A6.6,6.6,0,0,0,421.56,285.5Z" transform="translate(-56.38 -102.79)"/><path d="M355.12,257.34c1.5-3.22,4.41-5.57,7.5-7.33s6.43-3,9.5-4.82a33.4,33.4,0,0,0,14.94-18.68c-5.47-2.83-12.28-2.5-17.8.23A27.2,27.2,0,0,0,357,240a42.71,42.71,0,0,0-3.39,18" transform="translate(-56.38 -102.79)"/><path d="M417.27,235.66c-8.22-7.81-23.75-12.12-34.46-8.46,1.59,9.35,8.65,19.86,14.86,27s10,19.87,23.63,15.57c.93-.29,2,.56,2.85.06a3.42,3.42,0,0,0,1.31-2.06A31.86,31.86,0,0,0,417.27,235.66Z" transform="translate(-56.38 -102.79)"/><path d="M355.74,270.85a4.14,4.14,0,0,1-1.95-.11,7.65,7.65,0,0,1-4.27-3.15,11.61,11.61,0,0,1-1.69-7.68,28.85,28.85,0,0,1,.78-4.61c.36-1.59.86-3.19,1.4-4.82a49.27,49.27,0,0,1,8.66-15.21,44.69,44.69,0,0,1,3.66-3.86l1.08-.95a2,2,0,0,1,.41-.31,13.14,13.14,0,0,1-1.34,1.41c-.85.92-2.12,2.21-3.5,4a51.34,51.34,0,0,0-8.43,15.14,48.64,48.64,0,0,0-1.4,4.75,28.61,28.61,0,0,0-.8,4.53,11.38,11.38,0,0,0,1.5,7.42,7.56,7.56,0,0,0,4,3.15A10.3,10.3,0,0,0,355.74,270.85Z" transform="translate(-56.38 -102.79)"/><path d="M450,236.91c0-5.22-1.47-10.62-5-14.44-4.93-5.3-13.56-6.49-20-3.12s-10.28,10.8-9.85,18A22.39,22.39,0,0,0,426.33,255l4.59-.52c4.6,2.43,10.63.71,14.17-3.09S450,242.11,450,236.91Z" transform="translate(-56.38 -102.79)"/><path class="cls-4" d="M421.94,233.85s-.06.14-.23.37a10.65,10.65,0,0,1-.77,1,19.73,19.73,0,0,1-3.37,3.18,21.87,21.87,0,0,1-28.26-1.55,20,20,0,0,1-3-3.53c-.31-.45-.5-.83-.65-1.08s-.21-.39-.19-.4a30.88,30.88,0,0,0,4.1,4.74,22.62,22.62,0,0,0,5.64,3.73,21.18,21.18,0,0,0,16.14.88,22.77,22.77,0,0,0,6-3.08A30,30,0,0,0,421.94,233.85Z" transform="translate(-56.38 -102.79)"/><path class="cls-4" d="M427.28,249a2.47,2.47,0,0,1-.37.37,11.54,11.54,0,0,1-1.17,1,17.59,17.59,0,0,1-4.95,2.6,22.36,22.36,0,0,1-8.23,1.11,25.33,25.33,0,0,1-9.84-2.54,32,32,0,0,1-8.24-6,42.13,42.13,0,0,1-5.28-6.39,49.12,49.12,0,0,1-2.89-4.79c-.32-.58-.53-1-.69-1.36a2.85,2.85,0,0,1-.2-.49,2.29,2.29,0,0,1,.3.45l.76,1.3c.67,1.14,1.66,2.76,3,4.67a44.25,44.25,0,0,0,5.32,6.27,32.69,32.69,0,0,0,8.13,5.84,25.39,25.39,0,0,0,9.64,2.52,22.45,22.45,0,0,0,8.08-1,18.85,18.85,0,0,0,5-2.42C426.7,249.42,427.24,248.94,427.28,249Z" transform="translate(-56.38 -102.79)"/><path class="cls-4" d="M445.51,232s-.14.26-.47.68a13.11,13.11,0,0,1-1.57,1.63,17.86,17.86,0,0,1-2.7,2,20.71,20.71,0,0,1-3.72,1.76,21.69,21.69,0,0,1-4,.93,18.71,18.71,0,0,1-3.36.1,14.15,14.15,0,0,1-2.24-.31,2.52,2.52,0,0,1-.8-.24c0-.09,1.18.15,3.05.18A20.77,20.77,0,0,0,443.23,234C444.68,232.85,445.44,232,445.51,232Z" transform="translate(-56.38 -102.79)"/><path class="cls-4" d="M449.65,239a1.65,1.65,0,0,1,.14.9,4.15,4.15,0,0,1-.86,2.33,7.3,7.3,0,0,1-2.93,2.23,22,22,0,0,1-4.24,1.41,22.77,22.77,0,0,1-8.07.35,21.12,21.12,0,0,1-2.41-.49,2.7,2.7,0,0,1-.84-.32c0-.09,1.25.25,3.29.44a25.31,25.31,0,0,0,7.92-.49c3-.71,5.76-1.74,7-3.35a4.43,4.43,0,0,0,.95-2.13C449.67,239.31,449.61,239,449.65,239Z" transform="translate(-56.38 -102.79)"/><path class="cls-1" d="M424.52,442.18a1.84,1.84,0,0,1-.55.05c-.36,0-.9,0-1.58,0a36.18,36.18,0,0,1-5.8-.56,39,39,0,0,1-29.13-22.85,36.16,36.16,0,0,1-1.92-5.5c-.19-.66-.27-1.19-.35-1.54a3.76,3.76,0,0,1-.09-.55,17.43,17.43,0,0,1,.63,2,43.26,43.26,0,0,0,2.07,5.41,39.84,39.84,0,0,0,28.86,22.64,42.22,42.22,0,0,0,5.73.72C423.76,442.13,424.52,442.14,424.52,442.18Z" transform="translate(-56.38 -102.79)"/><path class="cls-1" d="M377.7,439a2.24,2.24,0,0,1-.44-.24l-1.21-.78L371.66,435a127.32,127.32,0,0,0-15-8.76A58.21,58.21,0,0,0,340.25,421a47.21,47.21,0,0,0-5.23-.48,18.63,18.63,0,0,1-1.93-.08,1.65,1.65,0,0,1,.5-.06c.32,0,.81-.07,1.43-.06a36.52,36.52,0,0,1,5.28.32,54.8,54.8,0,0,1,16.62,5.15,112.73,112.73,0,0,1,14.95,8.93c1.83,1.26,3.29,2.31,4.3,3.05l1.15.86C377.58,438.82,377.71,438.93,377.7,439Z" transform="translate(-56.38 -102.79)"/><polygon class="cls-2" points="371.61 333.57 303.34 337.03 308.63 357.13 399.61 357.56 371.61 333.57"/><path class="cls-2" d="M362.88,439.65s-22.06-11-24.79-11.11c-2.09-.07-14.21,2-19.79,2.95a4,4,0,0,0-3.42,4.49,3.4,3.4,0,0,0,3.18,2.75,4.29,4.29,0,0,0-2.34,4.43c.44,3.17,4.36,3.25,4.36,3.25a5.28,5.28,0,0,0-.47.57,3.8,3.8,0,0,0,2.81,6l1.78.13s-2.18,1.33-1.82,3.49c.7,4.14,10.16,3.52,10.16,3.52l32.46-.23Z" transform="translate(-56.38 -102.79)"/><path class="cls-2" d="M319.7,426.25c.31,1.35,1.08,4.22,3.61,5.18L336.1,429s-10.09-1.85-11.7-3.27a11.2,11.2,0,0,0-2.11-1.52A1.84,1.84,0,0,0,319.7,426.25Z" transform="translate(-56.38 -102.79)"/><path class="cls-3" d="M330,429.77c0,.22-2.56.87-5.82,1.31s-5.88.71-5.92.47,2.55-.87,5.81-1.31S330,429.53,330,429.77Z" transform="translate(-56.38 -102.79)"/><path class="cls-3" d="M328.23,437.39c.06.22-2.15,1-5,1.29s-5.17.11-5.16-.11,2.28-.4,5.06-.73S328.17,437.16,328.23,437.39Z" transform="translate(-56.38 -102.79)"/><path class="cls-3" d="M334.63,435.47c.21.09.07.83-.58,1.41s-1.4.63-1.47.42.4-.59.91-1.05S334.42,435.37,334.63,435.47Z" transform="translate(-56.38 -102.79)"/><path class="cls-3" d="M330.89,445.32c0,.23-2.45.72-5.51,1.08s-5.57.47-5.61.24,2.43-.71,5.51-1.07S330.87,445.09,330.89,445.32Z" transform="translate(-56.38 -102.79)"/><path class="cls-3" d="M337.71,440.76c.1,0,.34.19.48.68a2.68,2.68,0,0,1-1.81,3.21c-.5.14-.82.05-.83-.06s1.05-.54,1.64-1.6S337.5,440.85,337.71,440.76Z" transform="translate(-56.38 -102.79)"/><path class="cls-3" d="M334,453c0,.23-2.24.48-5,.56s-5.05-.05-5.05-.28,2.24-.48,5-.56S334,452.78,334,453Z" transform="translate(-56.38 -102.79)"/><path class="cls-3" d="M340.61,447.86c.1,0,.3.22.36.73a3.09,3.09,0,0,1-.42,1.85c-.77,1.28-1.76,1.85-1.9,1.72s.53-1.06,1.16-2.13S340.4,447.93,340.61,447.86Z" transform="translate(-56.38 -102.79)"/></g><g id="Character_1" data-name="Character 1"><path class="cls-2" d="M330.08,449c-4.48-2.13-19.43-8-19.43-8l-7.31-50-29.77,4.47s17.33,63.73,21.95,64.17,31.23,0,31.23,0l8.67-.13S333.22,450.48,330.08,449Z" transform="translate(-56.38 -102.79)"/><path class="cls-5" d="M309.37,458.08a3.33,3.33,0,0,1-1.49.55,8.68,8.68,0,0,1-7.25-1.93,3.46,3.46,0,0,1-1-1.22c.07-.06.48.37,1.25.93a10.13,10.13,0,0,0,7,1.86A9.74,9.74,0,0,1,309.37,458.08Z" transform="translate(-56.38 -102.79)"/><path class="cls-5" d="M326.55,459.49c-.07.05-.69-1-1.83-2.52a12.28,12.28,0,0,0-2.29-2.37,12.86,12.86,0,0,0-3.64-1.78A35.7,35.7,0,0,1,312,449.6a16.92,16.92,0,0,1-2.6-1.72,19.13,19.13,0,0,1,2.78,1.4,44.62,44.62,0,0,0,6.82,3.05,12.46,12.46,0,0,1,3.75,1.89,11.22,11.22,0,0,1,2.3,2.54,21,21,0,0,1,1.19,2A2.62,2.62,0,0,1,326.55,459.49Z" transform="translate(-56.38 -102.79)"/><path class="cls-1" d="M239.47,225.9l-11,7.58s-13.7-.82-23.64,2.56c-5.51,1.88-12.19,4.15-19.42,11.48a54.33,54.33,0,0,0-13.84,24.06L158.27,382.45l-20.21,78.23H272.53v-99l12.87-45.41s-3.34-5.24-3.23-7.33,7.6-50.48,7.6-50.48l-15.32-18.34Z" transform="translate(-56.38 -102.79)"/><path class="cls-1" d="M288,256.16s7.61,3.55,9.47,16.84,15.34,115.86,15.34,115.86-14.89,3.44-28.48,5l-17.11,2.91-.43-68.58Z" transform="translate(-56.38 -102.79)"/><g class="cls-6"><path d="M185.7,457.56c22.86-27.4,26.45-67.14,49.6-94.3l-14.16,8c2.51-23.61,4.92-48.16-3-70.55A619.24,619.24,0,0,1,185,457.45" transform="translate(-56.38 -102.79)"/></g><path class="cls-1" d="M222.37,258.3q-.78,63.43-5.81,126.71a53.57,53.57,0,0,1-2.17,9.67,7,7,0,0,1-7.74,4.83l-27.59-4.16c-4.8-.81-6.61-1.45-8.06-4.55a15.1,15.1,0,0,1-1.32-6.83c1.06-37.75-2.23-57.75,0-93.44" transform="translate(-56.38 -102.79)"/><path d="M169.72,290.53s0,.25,0,.73-.06,1.22-.1,2.16c-.1,1.9-.23,4.69-.34,8.29s-.2,8-.22,13.13.09,10.94.27,17.38c.35,12.88,1,28.23.74,45.28,0,2.13-.09,4.28-.14,6.47a15.19,15.19,0,0,0,1.14,6.36,6.19,6.19,0,0,0,4.72,4.09,66.17,66.17,0,0,0,6.76,1.2l14,2.1,7.15,1.08c1.19.17,2.42.39,3.59.51a6.72,6.72,0,0,0,6.06-3,11.15,11.15,0,0,0,1.3-3.31,54.12,54.12,0,0,0,1.56-7c.44-4.73.77-9.46,1.11-14.08.68-9.25,1.26-18.17,1.77-26.68,1-17,1.69-32.34,2.15-45.22s.72-23.3.88-30.51c.08-3.59.14-6.38.19-8.29,0-.94,0-1.66.05-2.16s0-.74,0-.74,0,.25,0,.74,0,1.22,0,2.16c0,1.91,0,4.7-.08,8.3-.1,7.2-.3,17.63-.72,30.51s-1.06,28.22-2,45.24c-.49,8.51-1.07,17.44-1.74,26.69-.34,4.63-.66,9.32-1.1,14.11a58.54,58.54,0,0,1-1.58,7.1,11.93,11.93,0,0,1-1.36,3.45,7.28,7.28,0,0,1-6.53,3.23c-1.26-.13-2.43-.35-3.64-.52l-7.15-1.08-14-2.11a64.69,64.69,0,0,1-6.81-1.22,6.61,6.61,0,0,1-5-4.38,15.55,15.55,0,0,1-1.18-6.57q.07-3.27.15-6.46c.31-17-.33-32.37-.63-45.26-.16-6.44-.21-12.27-.19-17.39s.16-9.53.31-13.13.3-6.4.44-8.29l.14-2.16C169.69,290.78,169.72,290.53,169.72,290.53Z" transform="translate(-56.38 -102.79)"/><path d="M272.53,399.24a1.57,1.57,0,0,1,0-.32c0-.24,0-.55,0-.93,0-.86.07-2.07.13-3.6.05-3.13.44-7.64,1.09-13.19.41-2.77.76-5.82,1.4-9,.3-1.62.57-3.3.94-5s.74-3.48,1.13-5.28c1.62-7.22,3.69-15.07,5.63-23.37,4-16.57,5.42-32,5.12-43.19-.11-2.78-.2-5.3-.28-7.52s-.34-4.12-.45-5.67-.23-2.73-.3-3.59c0-.39,0-.69-.06-.93a1.3,1.3,0,0,1,0-.32,1.8,1.8,0,0,1,.05.31l.12.93c.09.85.22,2.05.39,3.58s.4,3.45.54,5.67.22,4.75.35,7.54c.41,11.17-.95,26.71-5,43.31-1.93,8.31-4,16.16-5.66,23.35-.39,1.8-.78,3.56-1.15,5.27s-.65,3.38-1,5c-.66,3.22-1,6.26-1.45,9-.7,5.54-1.14,10-1.26,13.16-.1,1.53-.17,2.73-.22,3.59,0,.39-.06.69-.07.93A1.19,1.19,0,0,1,272.53,399.24Z" transform="translate(-56.38 -102.79)"/><path d="M271.58,331.89a2.4,2.4,0,0,1-.39.46c-.31.33-.7.74-1.19,1.24-1,1.08-2.56,2.59-4.49,4.43-3.86,3.68-9.37,8.59-15.76,13.62s-12.48,9.22-17,12.09c-2.24,1.44-4.08,2.58-5.37,3.33l-1.49.85a1.94,1.94,0,0,1-.53.27,2.88,2.88,0,0,1,.48-.35l1.43-.95c1.26-.8,3.06-2,5.28-3.45,4.43-2.95,10.45-7.18,16.84-12.2s11.92-9.87,15.83-13.48c2-1.8,3.53-3.27,4.61-4.3l1.26-1.17A2.84,2.84,0,0,1,271.58,331.89Z" transform="translate(-56.38 -102.79)"/><g class="cls-6"><path d="M287.62,310.44c-3.28,30.45-14.13,63.72-15.09,82.93,4.3-13.69,9.75-26.77,13.75-40.55S292.07,324.08,287.62,310.44Z" transform="translate(-56.38 -102.79)"/></g><path d="M307.44,133.35a7.82,7.82,0,0,0,3.88-11.76c-1-1.54-2.61-2.68-3.55-4.29a25.82,25.82,0,0,1-1.58-4.34,15.8,15.8,0,0,0-10.65-9.53,20.4,20.4,0,0,0-14.43,1.69c-1.75.89-3.48,2-5.44,2.18s-3.74-.6-5.61-1a13,13,0,0,0-14.57,17.06,11.15,11.15,0,0,0-.13,22c3.16.57,6.39-.25,9.52-1a169.79,169.79,0,0,1,38.71-4.32" transform="translate(-56.38 -102.79)"/><path d="M241.77,201.89a39.82,39.82,0,0,1-5.17-26.73c1.48-9.14,5.2-20.19,12.25-26.2-3.07-5-.5-9.43,3.32-13.91s9.51-7,15.2-8.48a63.32,63.32,0,0,1,26.1-1.38c7.07,1.11,16.18,4.16,16.12,9.4-.07,5.47-4,7.14-4,7.14a35.34,35.34,0,0,1,11.48,10.42c7.08,10.14,8.8,19.31,5.74,28.53s-6.57,16.19-13.43,21.06" transform="translate(-56.38 -102.79)"/><path class="cls-7" d="M301.58,211.74a9,9,0,0,1,4-1.45l-.26-.07a5,5,0,0,1,.77.05,3.54,3.54,0,0,1,2.61,1h0a6.49,6.49,0,0,1,2.76,3.84,7.72,7.72,0,0,1-2.72,7.55,5.91,5.91,0,0,1-10.08-4.47A7.32,7.32,0,0,1,301.58,211.74Z" transform="translate(-56.38 -102.79)"/><path class="cls-2" d="M239,233.25l11.12-73.36a7.21,7.21,0,0,1,7.8-5.85l39.4-1.73c12.26,1.21,17.18,17.63,15.45,29.82-1.92,13.55-4.8,30-8.45,39.67C297,241.2,281,240.58,281,240.58s-3,13.89-4.57,21.17l-8.12,28.78Z" transform="translate(-56.38 -102.79)"/><path d="M305,198a2.63,2.63,0,0,1-3,2.09,2.52,2.52,0,0,1-2.18-2.87,2.65,2.65,0,0,1,3-2.09A2.51,2.51,0,0,1,305,198Z" transform="translate(-56.38 -102.79)"/><path d="M307.42,189.91c-.38.27-2-1.57-4.81-2.14s-5.08.4-5.31,0c-.12-.18.33-.72,1.35-1.18a7.24,7.24,0,0,1,4.34-.42,7,7,0,0,1,3.74,2.13C307.45,189.13,307.61,189.79,307.42,189.91Z" transform="translate(-56.38 -102.79)"/><path d="M278.93,193.23a2.62,2.62,0,0,1-3,2.08,2.51,2.51,0,0,1-2.17-2.87,2.63,2.63,0,0,1,3-2.08A2.51,2.51,0,0,1,278.93,193.23Z" transform="translate(-56.38 -102.79)"/><path d="M280.1,184.8c-.39.27-2-1.57-4.81-2.14s-5.09.4-5.32,0c-.11-.18.33-.72,1.35-1.18a7.2,7.2,0,0,1,4.35-.41,6.9,6.9,0,0,1,3.74,2.12C280.12,184,280.29,184.68,280.1,184.8Z" transform="translate(-56.38 -102.79)"/><path d="M285.9,207.41c0-.16,1.81-.1,4.67.12.72.08,1.42.07,1.64-.38a3.74,3.74,0,0,0,0-2.2c-.31-1.85-.64-3.78-1-5.81-1.32-8.27-2.12-15-1.78-15.06s1.67,6.61,3,14.88q.47,3,.88,5.83a4.18,4.18,0,0,1-.2,2.85,1.81,1.81,0,0,1-1.38.79,4.78,4.78,0,0,1-1.24-.08C287.63,207.92,285.88,207.57,285.9,207.41Z" transform="translate(-56.38 -102.79)"/><path class="cls-5" d="M281,240.58a52.13,52.13,0,0,1-25.39-12.73s3.67,15.13,24.14,17.41Z" transform="translate(-56.38 -102.79)"/><path class="cls-5" d="M284.13,213.91a6.94,6.94,0,0,0-5-4.13,4.52,4.52,0,0,0-4.05,1.23,4.15,4.15,0,0,0,3.3,7,10.2,10.2,0,0,0,4.59-1.68,3.1,3.1,0,0,0,1.09-.85,1.44,1.44,0,0,0,.19-1.43" transform="translate(-56.38 -102.79)"/><path d="M277.36,207.65c.45.06-.16,3.07,2,5.73s5.4,3,5.34,3.42c0,.2-.84.44-2.2.2a7.69,7.69,0,0,1-4.49-2.69,6.65,6.65,0,0,1-1.46-4.77C276.67,208.26,277.16,207.59,277.36,207.65Z" transform="translate(-56.38 -102.79)"/><path d="M282.76,177.52c-.42.7-3.11-.23-6.44-.51s-6.14.06-6.44-.7c-.12-.36.48-1,1.69-1.49a10.86,10.86,0,0,1,5-.67,10.66,10.66,0,0,1,4.79,1.6C282.48,176.47,283,177.19,282.76,177.52Z" transform="translate(-56.38 -102.79)"/><path d="M308.06,181.69c-.61.53-2.39-.52-4.67-1s-4.33-.45-4.64-1.2c-.13-.36.31-.93,1.28-1.35a6.93,6.93,0,0,1,7.5,1.8C308.21,180.72,308.34,181.42,308.06,181.69Z" transform="translate(-56.38 -102.79)"/><path d="M298.79,158.6s-18.75-4.3-37.52,13.88c-12.37,12-18.1,29.13-18.1,29.13l-.11-35,8.7-14.07L266.32,148l24.95,3.89,8.32,6.6" transform="translate(-56.38 -102.79)"/><path d="M261.57,152.46c31.49-.81,53.31,14.23,52.68,38.65l9.4-14.15-11.57-22.09L296,146.78l-35.46-2.12Z" transform="translate(-56.38 -102.79)"/><path class="cls-7" d="M239.06,198.45a9.62,9.62,0,0,1,4.27-1.56l-.28-.08a5.78,5.78,0,0,1,.83.05,3.76,3.76,0,0,1,2.8,1h0a7.08,7.08,0,0,1,3,4.15,8.33,8.33,0,0,1-2.93,8.12,6.36,6.36,0,0,1-10.85-4.82A7.89,7.89,0,0,1,239.06,198.45Z" transform="translate(-56.38 -102.79)"/><path class="cls-4" d="M248.43,189.27a3,3,0,0,1-1.23-.77,8,8,0,0,1-1.82-9.22c.47-1,1.09-2,1.5-3a3.35,3.35,0,0,0-.16-3.15,11.8,11.8,0,0,0-2.53-2.45,8.72,8.72,0,0,1-2.28-2.7,9.73,9.73,0,0,1-1-5.82,8.6,8.6,0,0,1,1.4-3.71,3.28,3.28,0,0,1,1-1.06,11.23,11.23,0,0,0-1.8,4.84,9.38,9.38,0,0,0,1.11,5.37,8,8,0,0,0,2.13,2.45,12,12,0,0,1,2.71,2.64,4.16,4.16,0,0,1,.21,3.88c-.46,1.16-1.11,2.12-1.57,3.07a7.38,7.38,0,0,0-.47,5.37,8.25,8.25,0,0,0,1.83,3.27C248.05,188.92,248.47,189.21,248.43,189.27Z" transform="translate(-56.38 -102.79)"/><path class="cls-4" d="M251.92,147.39a13,13,0,0,0-1.9,4.49,9.72,9.72,0,0,0,.5,5.15c.66,1.86,2.3,3.37,3.87,5.18a8.69,8.69,0,0,1,1.82,3.1,6,6,0,0,1-.07,3.38c-.6,2-1.6,3.61-1.79,5.08a4.71,4.71,0,0,0,.54,3.36c.46.69,1,.86.9.94s-.13,0-.35-.1a2.39,2.39,0,0,1-.81-.64,4.82,4.82,0,0,1-.86-3.64c.14-1.65,1.12-3.31,1.63-5.21a5.16,5.16,0,0,0,0-2.94,8,8,0,0,0-1.67-2.79c-1.49-1.72-3.26-3.37-3.95-5.45a9.86,9.86,0,0,1-.36-5.54,9,9,0,0,1,1.53-3.4C251.49,147.65,251.9,147.36,251.92,147.39Z" transform="translate(-56.38 -102.79)"/><path class="cls-4" d="M270,166.14s-.3.26-.86,0a1.68,1.68,0,0,1-.75-.73,2.06,2.06,0,0,1-.17-1.38c.16-1,.95-2,1.22-3s-.43-2.15-1.48-3a8.74,8.74,0,0,1-2.74-3,7.37,7.37,0,0,1-.7-3.31,4.29,4.29,0,0,1,.94-2.91,16.63,16.63,0,0,0-.35,2.9,7.27,7.27,0,0,0,.8,3,8.69,8.69,0,0,0,2.59,2.76,5.64,5.64,0,0,1,1.43,1.68,2.85,2.85,0,0,1,.25,2.15c-.42,1.31-1.21,2.1-1.38,2.93a1.52,1.52,0,0,0,.5,1.71C269.63,166.14,269.94,166.07,270,166.14Z" transform="translate(-56.38 -102.79)"/><path class="cls-4" d="M279.14,151.06s.21,0,.39.25a1.46,1.46,0,0,1,.12,1.24,8.3,8.3,0,0,1-.82,1.45,3.3,3.3,0,0,0-.38,1.69,7.11,7.11,0,0,0,1.07,3.19c.44.79.71,1.3.62,1.37s-.53-.31-1.12-1.05a6,6,0,0,1-1.41-3.49,3.73,3.73,0,0,1,.56-2.11c.38-.56.75-.91.93-1.27A1.64,1.64,0,0,0,279.14,151.06Z" transform="translate(-56.38 -102.79)"/><path class="cls-4" d="M311.43,146.53s-.12.31-.5.74-1,1-1.58,1.73a4.22,4.22,0,0,0-.91,3.07,17.14,17.14,0,0,1,.06,4.39,7.72,7.72,0,0,1-2.13,3.95,7.31,7.31,0,0,1-3.17,1.82c-2.05.55-3.34.08-3.3,0a17.73,17.73,0,0,0,3.12-.57,7.16,7.16,0,0,0,4.66-5.38,19.11,19.11,0,0,0,0-4.21,4.69,4.69,0,0,1,1.23-3.46,15.24,15.24,0,0,1,1.81-1.59C311.15,146.68,311.39,146.49,311.43,146.53Z" transform="translate(-56.38 -102.79)"/><path class="cls-4" d="M322.7,163.59c.09.15-1,.4-1.7,1.8-.35.73-.92,1.56-1.4,2.47a18.36,18.36,0,0,1-1.8,3.06,6.61,6.61,0,0,1-6,2.28,3.73,3.73,0,0,1-2.45-1.08c.07-.14.95.41,2.51.5a6.45,6.45,0,0,0,5.29-2.23,23,23,0,0,0,1.78-2.91c.56-1,1.14-1.68,1.56-2.39a3.26,3.26,0,0,1,1.49-1.35C322.42,163.56,322.68,163.54,322.7,163.59Z" transform="translate(-56.38 -102.79)"/><path class="cls-4" d="M321.12,184.22c.09.06-.08.52-.64,1.05a4.37,4.37,0,0,1-5.6.27c-.61-.48-.83-.92-.75-1s1.5,1.13,3.56,1S321,184.05,321.12,184.22Z" transform="translate(-56.38 -102.79)"/><path class="cls-4" d="M294.27,139.73a18.41,18.41,0,0,0-2.08,1.57,6.26,6.26,0,0,0-1.73,5.56c.25,1.14.74,2.44.4,3.66a4.81,4.81,0,0,1-1.7,2.54,4.92,4.92,0,0,1-2.41,1.28c-.07-.13.87-.6,2-1.71a4.64,4.64,0,0,0,1.35-2.28c.24-1-.18-2-.47-3.32a6.14,6.14,0,0,1,.37-3.71,6.47,6.47,0,0,1,1.77-2.45A3.68,3.68,0,0,1,294.27,139.73Z" transform="translate(-56.38 -102.79)"/><path class="cls-4" d="M272.32,150.14c-.21-.14.79-1.79,1.28-4s.33-4.18.58-4.22.8,1.95.24,4.4S272.48,150.29,272.32,150.14Z" transform="translate(-56.38 -102.79)"/><path class="cls-4" d="M258.81,145.25c0-.06.22-.18.48-.54a3,3,0,0,0,.53-1.76c.05-1.62-1.14-3.7-2-6.22a9.64,9.64,0,0,1-.49-3.77,5.62,5.62,0,0,1,1.12-3,3.35,3.35,0,0,1,1.75-1.21c.51-.11.79,0,.79,0s-.28.08-.68.26a3.37,3.37,0,0,0-1.38,1.25c-1,1.32-1.13,3.72-.31,6.12s2,4.61,1.77,6.5a3,3,0,0,1-.88,2C259.14,145.29,258.82,145.29,258.81,145.25Z" transform="translate(-56.38 -102.79)"/><path class="cls-4" d="M279.81,140.3c0-.05.17-.24.55-.53s1-.69,1.21-1.36a4.22,4.22,0,0,0-.84-2.58c-.58-.94-1.4-1.86-2.2-3a6,6,0,0,1-1.45-3.63,5.39,5.39,0,0,1,1.4-2.88c1.17-1.33,2.06-1.93,2.13-1.86a15.83,15.83,0,0,1-1.67,2.22,5.22,5.22,0,0,0-1.09,2.57,5.63,5.63,0,0,0,1.36,3.09c1.52,2,3.33,4.06,2.93,6.19a2.91,2.91,0,0,1-1.61,1.47C280.09,140.26,279.84,140.35,279.81,140.3Z" transform="translate(-56.38 -102.79)"/><path class="cls-4" d="M299.07,141c-.05-.12.92-.32,1.47-1.58a3.8,3.8,0,0,0,.2-2.27,16.93,16.93,0,0,0-.93-2.87,7.93,7.93,0,0,1-.63-3.17,4.1,4.1,0,0,1,1.12-2.46c1-1.19,2.17-1.21,2.13-1.06a4.86,4.86,0,0,0-1.67,1.43,3.73,3.73,0,0,0-.8,2.12,8,8,0,0,0,.64,2.86,14.69,14.69,0,0,1,.9,3,4.16,4.16,0,0,1-.44,2.66,2.68,2.68,0,0,1-1.33,1.24C299.32,141.05,299.08,141,299.07,141Z" transform="translate(-56.38 -102.79)"/><path d="M305.63,141.73a12.48,12.48,0,0,1-2.31-.39c-1.47-.33-3.61-.7-6.26-1.09a69.55,69.55,0,0,0-20.82.31,103.71,103.71,0,0,0-20.08,5.84l-5.92,2.36a11.65,11.65,0,0,1-2.2.79,12.54,12.54,0,0,1,2.07-1.09c1.35-.66,3.34-1.57,5.82-2.61a93.81,93.81,0,0,1,20.17-6.12,64.82,64.82,0,0,1,21-.07,60.42,60.42,0,0,1,6.24,1.36A12.83,12.83,0,0,1,305.63,141.73Z" transform="translate(-56.38 -102.79)"/><path d="M254.41,150.11l.21,0,.61-.12,1-.2,1.36-.22a37.81,37.81,0,0,1,8.73-.22A52.83,52.83,0,0,1,279,152.1c2.31.78,4.68,1.76,7.12,2.83s4.93,2.26,7.39,3.64c10,5.35,16.73,13.8,19.11,20.77a29.76,29.76,0,0,1,1.61,8.56c.06,1,.05,1.83,0,2.38v.62a.85.85,0,0,0,0,.21.58.58,0,0,0,0-.21c0-.17,0-.37.05-.62a23.12,23.12,0,0,0,.05-2.39,28.33,28.33,0,0,0-1.48-8.66c-2.32-7.09-9.14-15.68-19.2-21.08-2.48-1.38-5-2.57-7.43-3.65s-4.84-2-7.17-2.82A52.16,52.16,0,0,0,266.34,149a36.2,36.2,0,0,0-8.79.38l-1.36.26-1,.25-.6.16A.8.8,0,0,0,254.41,150.11Z" transform="translate(-56.38 -102.79)"/><path d="M293.59,158.53a5.35,5.35,0,0,0-.66-.11,16.79,16.79,0,0,0-1.91-.15,26.68,26.68,0,0,0-7,.78,48.53,48.53,0,0,0-20.18,11.07,74.72,74.72,0,0,0-8.63,9.4,89.73,89.73,0,0,0-6.06,8.48,46.48,46.48,0,0,0-3.32,6.19c-.33.76-.57,1.36-.71,1.77a2.9,2.9,0,0,0-.19.64,4.62,4.62,0,0,0,.28-.6c.17-.41.44-1,.79-1.74a54,54,0,0,1,3.44-6.08,96.28,96.28,0,0,1,6.11-8.38,76.45,76.45,0,0,1,8.61-9.32,49.49,49.49,0,0,1,19.94-11.1,28.87,28.87,0,0,1,6.9-.93c.83,0,1.47,0,1.9.07A3.4,3.4,0,0,0,293.59,158.53Z" transform="translate(-56.38 -102.79)"/><path class="cls-2" d="M123.55,457.2s6.12-2,10-3.14c2.17-.63,11.15-4.6,16.61-5.63,4.57-.86,17.19-7.31,19.15-8.63s9.7-44.45,9.7-44.45l29.2,4.4s-15.57,41.6-16.55,45.57S187,459.56,187,459.56H123.55Z" transform="translate(-56.38 -102.79)"/><path class="cls-5" d="M174.69,458.6c0-.09,1-.17,2.37-.77a9.44,9.44,0,0,0,5.87-9.41c-.08-1.53-.44-2.44-.35-2.47s.15.2.3.62a7.45,7.45,0,0,1,.42,1.82,9.26,9.26,0,0,1-6.11,9.79,7.91,7.91,0,0,1-1.82.42C174.93,458.65,174.69,458.63,174.69,458.6Z" transform="translate(-56.38 -102.79)"/><path class="cls-5" d="M170.85,456.47a3.68,3.68,0,0,1-.59.26,11.16,11.16,0,0,1-1.8.47,41.63,41.63,0,0,1-6.83.15,16.15,16.15,0,0,0-4.61.55c-1.6.48-3.2,1.36-5,2a16.56,16.56,0,0,1-12.3-.94l-.62-.3.67-.18.59-.17a22.45,22.45,0,0,0,5.88-2.67,38.23,38.23,0,0,0,4.72-3.8,24.35,24.35,0,0,1,9.07-5,54,54,0,0,1,6.8-1.62l1.87-.31a3.21,3.21,0,0,1,.66-.07,2.81,2.81,0,0,1-.64.17l-1.85.41a62.42,62.42,0,0,0-6.72,1.77,24.25,24.25,0,0,0-8.87,5,37.69,37.69,0,0,1-4.77,3.87,22.7,22.7,0,0,1-6,2.74l-.6.17,0-.48a16.21,16.21,0,0,0,11.92.94c1.79-.57,3.4-1.45,5.07-1.93a16.37,16.37,0,0,1,4.73-.51,46.35,46.35,0,0,0,6.8,0C170,456.78,170.84,456.41,170.85,456.47Z" transform="translate(-56.38 -102.79)"/><path d="M229.08,306.48l3.24-8.34a.91.91,0,0,1,.36-.44,1,1,0,0,1,.55-.19.91.91,0,0,1,.62.11,1,1,0,0,1,.47.47l1.07,2.65,1.26,3.11,1,2.6a1,1,0,0,1-.58,1.31,1,1,0,0,1-.78,0,1,1,0,0,1-.55-.54l-.84-1.9c-1.08,0-2.15,0-3.21,0l-.7,1.91a1.08,1.08,0,0,1-.57.54,1,1,0,0,1-1.32-.54A.92.92,0,0,1,229.08,306.48Zm5-3.21-.76-2.08-.83,2.08Z" transform="translate(-56.38 -102.79)"/><path d="M239.26,307.46a1,1,0,0,1-.3-.71q0-1.47-.06-4.17l0-4.06a1,1,0,0,1,.29-.72,1,1,0,0,1,.7-.3,1,1,0,0,1,1,1l0,3.78.05,3.64H243l2,0a1,1,0,0,1,.72.29.91.91,0,0,1,.29.68,1,1,0,0,1-1,1h-4.95A1,1,0,0,1,239.26,307.46Z" transform="translate(-56.38 -102.79)"/><path d="M247.52,307.82a1,1,0,0,1-.75-.19,1,1,0,0,1-.39-.64,1,1,0,0,1,.19-.75l2.57-3.55q-1.74-2.37-2.59-3.75a.88.88,0,0,1-.15-.7.87.87,0,0,1,.39-.6,1,1,0,0,1,.7-.15.9.9,0,0,1,.61.41c.54.77,1.28,1.85,2.21,3.23l2.2-3.22a1,1,0,0,1,.67-.39.92.92,0,0,1,.73.2,1,1,0,0,1,.39.65,1,1,0,0,1-.19.73l-2.54,3.65q1.58,2,2.68,3.65a.89.89,0,0,1,.14.7.93.93,0,0,1-.4.59.94.94,0,0,1-.71.14.9.9,0,0,1-.6-.42q-1-1.32-2.28-3.09l-2.23,3.11A1,1,0,0,1,247.52,307.82Z" transform="translate(-56.38 -102.79)"/></g><g id="Character_4" data-name="Character 4"><polygon points="491.26 279.38 474.3 315.37 458.56 361.73 611.07 362.39 608.47 274.59 533.51 267.58 491.26 279.38"/><path class="cls-8" d="M466.11,389.27s-12.28,4.67-21.89,7.5-26.76,13.42-26.76,13.42S400,425.92,400.63,428s2.7,3.08,5.35.95,15.74-9.86,15.74-9.86.84,4.38,3.67,4.88a7.61,7.61,0,0,0,4.32-.2s1.16,4.11,3.2,5.45a11.76,11.76,0,0,0,3.92,1.67,3.3,3.3,0,0,0,2.7,3.08,17.27,17.27,0,0,0,5.41.64s9.11-5.52,10.56-8.18,3.22-6.25,3.22-6.25l3.76-1.88,11.55-2Z" transform="translate(-56.38 -102.79)"/><path class="cls-2" d="M453.44,410.05a7.28,7.28,0,0,1-1.13,1.39,14.92,14.92,0,0,1-4.06,2.85,20.45,20.45,0,0,1-7.27,2,15.85,15.85,0,0,1-4.58-.19,12,12,0,0,1-4.65-1.91l.3-.41a32.16,32.16,0,0,1,3.22,2.73,11.4,11.4,0,0,1,1.45,1.7,5.68,5.68,0,0,1,.88,2.14,6.58,6.58,0,0,1-1.25,5.23l-.12.15-.18-.07a24.63,24.63,0,0,1-4.9-2.74c-1.48-1-2.84-2.08-4.12-3.09s-2.46-2-3.59-2.9a4.46,4.46,0,0,1-1.34-3.77,6.25,6.25,0,0,1,.52-1.68c.21-.51.42-1,.64-1.41.43-.85.85-1.56,1.21-2.13s.67-1,.89-1.25a2.53,2.53,0,0,1,.35-.41,2.38,2.38,0,0,1-.27.46c-.19.29-.47.73-.81,1.3a23.87,23.87,0,0,0-1.13,2.15c-.21.43-.41.9-.6,1.4a5.75,5.75,0,0,0-.46,1.61,4.1,4.1,0,0,0,1.27,3.44c1.08.88,2.34,1.83,3.6,2.83s2.64,2.05,4.11,3.05a24.62,24.62,0,0,0,4.82,2.66l-.3.09a6.09,6.09,0,0,0,1.15-4.82,5.33,5.33,0,0,0-.8-1.95,11.25,11.25,0,0,0-1.38-1.62,30.06,30.06,0,0,0-3.16-2.69l.3-.41a11.32,11.32,0,0,0,4.44,1.85,15.4,15.4,0,0,0,4.46.23,20.64,20.64,0,0,0,7.16-1.9,15.5,15.5,0,0,0,4.08-2.7C453,410.54,453.39,410,453.44,410.05Z" transform="translate(-56.38 -102.79)"/><path class="cls-2" d="M437,422.92a9.13,9.13,0,0,1,1.5-.6,11,11,0,0,0,3.26-1.92,3.47,3.47,0,0,0,1-1.68,2.23,2.23,0,0,0-1.36-2.54s.17-.06.46,0a1.78,1.78,0,0,1,1,.78,2.56,2.56,0,0,1,.39,1.83,3.66,3.66,0,0,1-1.14,2,9,9,0,0,1-3.5,1.9A3.61,3.61,0,0,1,437,422.92Z" transform="translate(-56.38 -102.79)"/><path class="cls-2" d="M439.57,429.89a21.39,21.39,0,0,1,2.21-1.44c.69-.44,1.49-1,2.35-1.62a18,18,0,0,0,2.6-2.26,3.56,3.56,0,0,0,.79-1.48,2.3,2.3,0,0,0-.19-1.49,3.23,3.23,0,0,0-2-1.67,5.49,5.49,0,0,0-1.86-.23,2.65,2.65,0,0,1-.71,0,1.78,1.78,0,0,1,.7-.2,5,5,0,0,1,2,.07,3.62,3.62,0,0,1,2.34,1.82,2.9,2.9,0,0,1,.25,1.81,4.07,4.07,0,0,1-.89,1.71,15.91,15.91,0,0,1-2.72,2.3c-.89.63-1.72,1.15-2.43,1.56A9.54,9.54,0,0,1,439.57,429.89Z" transform="translate(-56.38 -102.79)"/><path class="cls-2" d="M451.69,429.09a8.81,8.81,0,0,0,.43-1.35,2.94,2.94,0,0,0-4.19-3.23c-.8.35-1.13.83-1.2.77s.19-.62,1-1.1a3.21,3.21,0,0,1,4.73,3.63C452.24,428.75,451.72,429.13,451.69,429.09Z" transform="translate(-56.38 -102.79)"/><path class="cls-8" d="M527.35,442.27,524.14,447,500.21,447l-30.48,12.28h78.72c.67-.83,2.72-4,2.72-4Z" transform="translate(-56.38 -102.79)"/><path class="cls-1" d="M636.43,296.61c-17.19-27.81-54.13-61.79-57.26-63.36s-53.63-4.74-53.63-4.74l-39.88,28.3L472.42,276.6c-1.81,5.63-5,14.3-3.54,20l1.23,9.76,41.6,26.85,20.69,12.08,11.52,16.34L543,389l16.3-3.1s25.1,2.48,49.16,3.07,57.15-7.05,57.15-7.05S655.6,327.64,636.43,296.61Z" transform="translate(-56.38 -102.79)"/><path class="cls-1" d="M540.47,276.4l14.12,78.34-29.28,86.41,29.28,16s20.92-36.82,30.34-59.09,12.85-34.71,12.85-34.71,0-84.67-3-94.43-12.94-29.11-23.4-28.06S536.19,252.64,540.47,276.4Z" transform="translate(-56.38 -102.79)"/><path class="cls-1" d="M470.11,306.4l25.23,61.78a25.55,25.55,0,0,0-3,7.27L460.87,391l9.24,29.75s39.26-13,44.82-16,21.6-14.42,24.38-23.69-12.63-42.11-12.63-42.11Z" transform="translate(-56.38 -102.79)"/><path d="M532.4,345.33a3,3,0,0,1-.54-.27l-1.49-.83c-1.29-.74-3.15-1.82-5.43-3.2s-5-3-7.86-5c-1.45-1-3-2.08-4.45-3.29l-4.56-3.77-15.92-13.34-4.78-4.09-1.29-1.13a2.53,2.53,0,0,1-.42-.42,2.11,2.11,0,0,1,.49.34l1.34,1c1.21,1,2.87,2.33,4.9,4,4.14,3.43,9.78,8.08,16,13.22l4.55,3.79c1.48,1.19,3,2.28,4.4,3.28,2.88,2,5.54,3.71,7.79,5.13l5.33,3.33,1.44.92A2.36,2.36,0,0,1,532.4,345.33Z" transform="translate(-56.38 -102.79)"/><path d="M535.32,232.13a14.09,14.09,0,0,1,1.93,2.91,21,21,0,0,1,2.24,9.2,24.93,24.93,0,0,1-.79,6.54,27.78,27.78,0,0,1-3,7,37.92,37.92,0,0,1-12.16,12.16,32.24,32.24,0,0,1-16.28,5.42,21.47,21.47,0,0,1-13.37-4,17.85,17.85,0,0,1-6-7.3,11,11,0,0,1-.53-1.4,6,6,0,0,1-.28-1.06c-.06-.26-.1-.48-.14-.66a.67.67,0,0,1,0-.23,30,30,0,0,0,1.16,3.27,18,18,0,0,0,6,7.09,21.22,21.22,0,0,0,13.13,3.85,32,32,0,0,0,16-5.37,37.89,37.89,0,0,0,12-12,27.66,27.66,0,0,0,3-6.82,25,25,0,0,0,.83-6.42,21.12,21.12,0,0,0-2.06-9.12,12.91,12.91,0,0,0-.69-1.31c-.21-.37-.4-.69-.57-.93l-.37-.56C535.35,232.21,535.31,232.14,535.32,232.13Z" transform="translate(-56.38 -102.79)"/><path d="M524.46,268.24c-.14.05-.87-1.57-2.1-3.35s-2.48-3.05-2.37-3.16a11.65,11.65,0,0,1,4.47,6.51Z" transform="translate(-56.38 -102.79)"/><path d="M534,259.34a23.5,23.5,0,0,0-3.35-2.45,24.38,24.38,0,0,0-3.92-1.36,8,8,0,0,1,7.27,3.81Z" transform="translate(-56.38 -102.79)"/><path d="M539.19,248.72c-.05.14-1.52-.31-3.37-.56s-3.39-.24-3.4-.39a7,7,0,0,1,3.47-.13A7.14,7.14,0,0,1,539.19,248.72Z" transform="translate(-56.38 -102.79)"/><path d="M538.29,236.36a20.12,20.12,0,0,1-3,.84,22.38,22.38,0,0,1-3,.88,6.38,6.38,0,0,1,2.87-1.38A6.53,6.53,0,0,1,538.29,236.36Z" transform="translate(-56.38 -102.79)"/><path d="M508.34,274.23a5.18,5.18,0,0,1-.78-3.2,5.28,5.28,0,0,1,.81-3.2c.15.05-.29,1.44-.29,3.2S508.48,274.18,508.34,274.23Z" transform="translate(-56.38 -102.79)"/><path d="M492.21,271.07a6.47,6.47,0,0,1,1.44-2.08c.9-1.06,1.73-1.84,1.83-1.74s-.53,1-1.43,2.08S492.32,271.16,492.21,271.07Z" transform="translate(-56.38 -102.79)"/><path d="M594.73,268.91s0,.14.12.42a10.62,10.62,0,0,1,.28,1.26c.22,1.12.42,2.81.64,5,.42,4.4.8,10.87,1.11,19.13.62,16.51,1,40.15,1.12,68.62v.06c-2.11,7.17-4.77,14.51-7.71,22.09s-6.13,15.39-9.91,23.22c-7.5,15.69-16.22,31.93-25.55,48.55l-.13.23-.22-.13-2.71-1.47-26.58-14.51-.19-.1.07-.21,29.34-86.4v.1c-4.27-23.9-7.77-43.49-10.2-57.11-1.21-6.8-2.14-12.11-2.78-15.73-.31-1.8-.55-3.18-.71-4.12s-.23-1.41-.23-1.41.11.48.29,1.4.43,2.31.77,4.11c.66,3.62,1.64,8.92,2.89,15.71,2.47,13.61,6,33.19,10.38,57.08v.05l0,.05c-8.29,24.49-18.29,54.08-29.24,86.44l-.12-.31L552,455.43l2.71,1.48-.35.1c9.32-16.62,18-32.85,25.55-48.51,3.77-7.82,7-15.63,9.92-23.18s5.62-14.91,7.73-22v.06c0-28.47-.39-52.1-.93-68.61-.28-8.26-.62-14.73-1-19.12-.2-2.2-.38-3.88-.58-5a12.31,12.31,0,0,0-.24-1.27A4.37,4.37,0,0,1,594.73,268.91Z" transform="translate(-56.38 -102.79)"/><path d="M575.68,247.62a39.94,39.94,0,0,0-4.74-2,23.65,23.65,0,0,0-23.17,4.75,41.64,41.64,0,0,0-3.57,3.71,5.45,5.45,0,0,1,.76-1.17,21,21,0,0,1,2.56-2.82,23.1,23.1,0,0,1,23.54-4.82,20.51,20.51,0,0,1,3.46,1.59A5.59,5.59,0,0,1,575.68,247.62Z" transform="translate(-56.38 -102.79)"/><g class="cls-9"><path d="M587.57,391.87c.16-.42.31-.84.47-1.25l-.26.18Z" transform="translate(-56.38 -102.79)"/><path d="M603.37,336.78c-1.26-12.84-2.92-25.68-6.26-38.14-2.83,21.63,2.72,43.82-1,65.32-1.58,9.17-4.81,18-8.09,26.66,8.18-5.35,13.11-14.71,15.06-24.3S604.34,346.62,603.37,336.78Z" transform="translate(-56.38 -102.79)"/></g><g class="cls-9"><path d="M529,343.3l-34.73-26.21c.39,9.77,7.82,17.79,15.55,23.79s18.23,12.9,25.55,19.38C533,354.86,531.43,348.7,529,343.3Z" transform="translate(-56.38 -102.79)"/></g><path class="cls-4" d="M544.32,295.37a5.92,5.92,0,0,1-.56.66c-.38.42-1,1-1.71,1.81a41.75,41.75,0,0,1-7,5.91,20.5,20.5,0,0,1-5.78,2.62,14.71,14.71,0,0,1-7.28,0,27.23,27.23,0,0,1-7.31-3.38c-2.37-1.45-4.71-3.14-7.3-4.49a18.93,18.93,0,0,0-8.05-2.42,11.82,11.82,0,0,0-7.32,2.39,57.67,57.67,0,0,0-5.47,4.7,22.52,22.52,0,0,1-5.15,3.71,9.45,9.45,0,0,1-5.11,1.07,7.7,7.7,0,0,1-3.75-1.25,5.25,5.25,0,0,1-1.73-1.8,3.46,3.46,0,0,1-.35-.8s.14.27.44.74a5.43,5.43,0,0,0,1.75,1.69,7.69,7.69,0,0,0,3.66,1.13,9.28,9.28,0,0,0,4.93-1.11,22.53,22.53,0,0,0,5-3.7,57.88,57.88,0,0,1,5.48-4.77,14.9,14.9,0,0,1,3.51-1.87,11.48,11.48,0,0,1,4.1-.64,19.32,19.32,0,0,1,8.28,2.47c2.64,1.37,5,3.07,7.33,4.52a26.77,26.77,0,0,0,7.16,3.34,12.71,12.71,0,0,0,3.63.47,14.26,14.26,0,0,0,3.43-.4,20.27,20.27,0,0,0,5.69-2.51,44.16,44.16,0,0,0,7-5.75l1.77-1.73A5,5,0,0,1,544.32,295.37Z" transform="translate(-56.38 -102.79)"/><path class="cls-4" d="M595.05,289.3a2.57,2.57,0,0,1-.42.4,5.92,5.92,0,0,1-1.43.83,9.36,9.36,0,0,1-6,.18c-5.21-1.2-9.83-7.56-17.62-9A27.75,27.75,0,0,0,564,281a29.43,29.43,0,0,0-5.23.4,28,28,0,0,0-8.4,2.82,30.25,30.25,0,0,0-6.6,4.86,2.54,2.54,0,0,1,.37-.44l1.13-1.2c.55-.46,1.2-1.06,2-1.67l1.34-.94c.47-.34,1-.6,1.58-.93a27.57,27.57,0,0,1,8.49-3,29.46,29.46,0,0,1,5.32-.44,26.85,26.85,0,0,1,5.69.71,26.2,26.2,0,0,1,5.41,1.89c.81.46,1.63.87,2.38,1.34s1.46,1,2.15,1.48c2.71,2,5.21,3.77,7.66,4.45a9.44,9.44,0,0,0,5.85,0A8.78,8.78,0,0,0,595.05,289.3Z" transform="translate(-56.38 -102.79)"/><path class="cls-4" d="M621,275.27c0,.05-.46.26-1.2.83a9.67,9.67,0,0,0-2.49,3,20.26,20.26,0,0,0-1.89,5.54,37.55,37.55,0,0,1-1.91,7.06,12,12,0,0,1-4.82,5.49,13.37,13.37,0,0,1-5.67,1.91,11.38,11.38,0,0,1-4-.31,5.85,5.85,0,0,1-1-.35c-.24-.09-.36-.14-.35-.16s.51.13,1.43.31a12.25,12.25,0,0,0,3.94.15,13.47,13.47,0,0,0,5.46-2,11.74,11.74,0,0,0,4.59-5.29,40.62,40.62,0,0,0,1.92-6.95,19.79,19.79,0,0,1,2-5.62,9.07,9.07,0,0,1,2.69-3,5,5,0,0,1,.95-.54C620.9,275.3,621,275.25,621,275.27Z" transform="translate(-56.38 -102.79)"/><path class="cls-4" d="M504,324.79a4.13,4.13,0,0,1-.2,1.06,8.47,8.47,0,0,1-.35,1.22,16.55,16.55,0,0,1-.61,1.57,15.73,15.73,0,0,1-.93,1.82,19.62,19.62,0,0,1-1.26,2,21.85,21.85,0,0,1-8.2,6.82,20.33,20.33,0,0,1-4.15,1.43,13.55,13.55,0,0,1-1.66.29,7.71,7.71,0,0,1-1.26.1,4.74,4.74,0,0,1-1.08,0c0-.11,1.54-.12,3.91-.73a21.65,21.65,0,0,0,4-1.5,24.45,24.45,0,0,0,4.4-2.87,24.18,24.18,0,0,0,3.62-3.81,21.23,21.23,0,0,0,1.28-1.91,14.85,14.85,0,0,0,1-1.76C503.54,326.27,503.87,324.76,504,324.79Z" transform="translate(-56.38 -102.79)"/><path class="cls-1" d="M661.05,407.53a9.37,9.37,0,0,1-1.64.29,15.11,15.11,0,0,1-1.95.2,23.22,23.22,0,0,1-2.59.08,26.77,26.77,0,0,1-3.13-.15c-1.13-.07-2.32-.29-3.58-.48a43.91,43.91,0,0,1-7.92-2.36,42.79,42.79,0,0,1-7.26-3.95c-1-.75-2-1.43-2.87-2.19a27.35,27.35,0,0,1-2.32-2.11c-.71-.65-1.26-1.33-1.77-1.89a14.43,14.43,0,0,1-1.23-1.52,9.94,9.94,0,0,1-1-1.36,8.81,8.81,0,0,1,1.11,1.23,16.65,16.65,0,0,0,1.3,1.45c.52.54,1.09,1.2,1.8,1.82a29.49,29.49,0,0,0,2.35,2.05c.84.73,1.84,1.4,2.86,2.13a45.35,45.35,0,0,0,7.19,3.86,44.57,44.57,0,0,0,7.81,2.36c1.24.21,2.41.45,3.53.53a29.68,29.68,0,0,0,3.1.22c1,.06,1.81,0,2.57,0a17.14,17.14,0,0,0,1.94-.11A11.33,11.33,0,0,1,661.05,407.53Z" transform="translate(-56.38 -102.79)"/><path class="cls-1" d="M580.88,458c-.14,0,2-9.94,4.79-22.14s5.15-22.06,5.29-22-2,9.95-4.79,22.15S581,458.07,580.88,458Z" transform="translate(-56.38 -102.79)"/><path class="cls-2" d="M533.14,243.75h0a11.56,11.56,0,0,0-1-5.62l-30.35-66.44c-7.07-19.07-24.07-30.86-42.94-23.26l-1.71.81A36.37,36.37,0,0,0,438.63,195c6.22,16.5,13.31,34.64,17.44,43.12,8.55,17.55,27.5,12,27.5,12l3.54,6.76s3.7,12.73,19.52,10.95c12.17-1.38,21.17-13.19,24.69-18.58A11.48,11.48,0,0,0,533.14,243.75Z" transform="translate(-56.38 -102.79)"/><path class="cls-5" d="M483.42,250.09a47.31,47.31,0,0,0,19.93-17.69s.56,15.27-17.81,22Z" transform="translate(-56.38 -102.79)"/><path d="M450,208.27a2.78,2.78,0,0,0,3.63,1.4,2.67,2.67,0,0,0,1.53-3.5,2.79,2.79,0,0,0-3.63-1.4A2.66,2.66,0,0,0,450,208.27Z" transform="translate(-56.38 -102.79)"/><path d="M446.5,201.81c.47.19,1.71-2.13,4.43-3.4s5.34-.86,5.48-1.33c.08-.22-.52-.66-1.69-.88a7.65,7.65,0,0,0-4.58.65,7.43,7.43,0,0,0-3.33,3.13C446.28,201,446.28,201.74,446.5,201.81Z" transform="translate(-56.38 -102.79)"/><path d="M474.87,196.72a2.78,2.78,0,0,0,3.63,1.4,2.66,2.66,0,0,0,1.53-3.5,2.78,2.78,0,0,0-3.63-1.4A2.67,2.67,0,0,0,474.87,196.72Z" transform="translate(-56.38 -102.79)"/><path d="M473.41,189.73c.46.18,1.71-2.14,4.42-3.41s5.35-.85,5.49-1.33c.07-.21-.52-.66-1.69-.88a7.65,7.65,0,0,0-4.58.66,7.31,7.31,0,0,0-3.33,3.12C473.19,188.93,473.18,189.65,473.41,189.73Z" transform="translate(-56.38 -102.79)"/><path d="M473.06,214.5c-.06-.16-1.88.34-4.78,1.28-.73.26-1.45.43-1.79,0a3.91,3.91,0,0,1-.51-2.27c-.14-2-.28-4.06-.44-6.24-.7-8.86-1.56-16-1.91-16s-.08,7.23.62,16.08q.28,3.27.55,6.24a4.46,4.46,0,0,0,.92,2.89,1.92,1.92,0,0,0,1.62.47,5,5,0,0,0,1.25-.39C471.41,215.45,473.12,214.66,473.06,214.5Z" transform="translate(-56.38 -102.79)"/><path d="M481.93,212.6c-.45.19.93,3.13-.6,6.41s-4.82,4.44-4.65,4.86c0,.21,1,.24,2.31-.35a8.08,8.08,0,0,0,4-3.88,7.09,7.09,0,0,0,.32-5.29C482.8,213.07,482.12,212.49,481.93,212.6Z" transform="translate(-56.38 -102.79)"/><path d="M467.69,179.43c.61.61,3.16-1,6.52-2.14s6.35-1.46,6.46-2.33c0-.4-.74-.88-2.11-1.11a11.93,11.93,0,0,0-9.89,3.4C467.72,178.28,467.41,179.13,467.69,179.43Z" transform="translate(-56.38 -102.79)"/><path d="M443.79,193.49c.77.39,2.34-1.13,4.57-2.22s4.35-1.55,4.48-2.4c0-.4-.55-.88-1.65-1.07a7.07,7.07,0,0,0-4.22.76,7,7,0,0,0-3.08,3C443.4,192.53,443.44,193.29,443.79,193.49Z" transform="translate(-56.38 -102.79)"/><path d="M436.5,186.07s-.56-13.25,3.55-18.35c5-6.17,11.1-.4,16.44-5s10.09-10.53,18.62-8.74c9.33,1.95,7.83,7.12,12,14.76,16.72,30.94,26.76,37.18,21.34,21.44-.59-1.72,3.34-5.17.75-12.41-3.37-9.39-8.17-20.46-13.18-25.88-4.23-4.58-9-6.84-16.46-8.34-11.72-2.36-23.69,3.12-31.39,7.75S429.23,172.58,436.5,186.07Z" transform="translate(-56.38 -102.79)"/><path class="cls-2" d="M507.06,190.22a5.31,5.31,0,0,1,3-7.07c3.44-1.24,8-1.1,11,5.81,5.31,12.25-8.09,15.06-8.26,14.72S509.24,195.36,507.06,190.22Z" transform="translate(-56.38 -102.79)"/><path class="cls-2" d="M513.45,197.91c0-.06.27.06.71.07a2.41,2.41,0,0,0,1.61-.66c1.08-1,1.28-3.57.38-5.8a7.62,7.62,0,0,0-1.92-2.8,2.68,2.68,0,0,0-2.31-.94,1.18,1.18,0,0,0-1,1.13c0,.42.17.63.11.68s-.35-.1-.47-.64a1.49,1.49,0,0,1,.15-1,1.72,1.72,0,0,1,1-.82,3.26,3.26,0,0,1,3.06.93,8,8,0,0,1,2.22,3.09c1,2.5.73,5.36-.82,6.64a2.52,2.52,0,0,1-2.09.53C513.6,198.2,513.41,198,513.45,197.91Z" transform="translate(-56.38 -102.79)"/><path d="M495.78,166.94c-1.06,1.81-2.19,3.7-4,4.78s-4.48,1-5.68-.71c-.54-.77-.79-1.84-1.65-2.23-1-.47-2.13.35-3.09.94a8.52,8.52,0,0,1-10.6-1.75c-.27,1.76-2.38,2.69-4.15,2.46s-3.31-1.26-4.94-2-3.64-1.1-5.13-.12c-.83.55-1.41,1.48-2.35,1.82-1.65.61-3.3-.88-4.28-2.34s-2-3.21-3.78-3.43-3,1-4.38,1.92-3.4,1.45-4.45.2a3.19,3.19,0,0,1-.49-2.44,8.64,8.64,0,0,1,7.83-7.32,11.71,11.71,0,0,1,18.5-11.24,11.89,11.89,0,0,1,19-4.2,8.61,8.61,0,0,1,14.13,7.19c2.76.21,5.63,1.49,6.86,4s0,6.11-2.76,6.59a4.77,4.77,0,0,1-5.43,7.83" transform="translate(-56.38 -102.79)"/><path class="cls-1" d="M445.43,160.72s0,.08.11.22a4.78,4.78,0,0,0,.38.61,8.16,8.16,0,0,0,2,1.91,9.45,9.45,0,0,0,4,1.59,8.87,8.87,0,0,0,5.61-.92l-.33-.17a4.84,4.84,0,0,0,1.81,3.22,13.94,13.94,0,0,0,3.47,2,10,10,0,0,0,2,.75,4.66,4.66,0,0,0,2.25-.2A4.86,4.86,0,0,0,470,166.5l-.51.08a10,10,0,0,0,6.79,4.45,7.27,7.27,0,0,0,4.58-.57,13.29,13.29,0,0,0,3.5-2.7h-.39a10.53,10.53,0,0,0,4.62,2.37,5.56,5.56,0,0,0,4.74-.84,7.32,7.32,0,0,0,2.66-7.62l-.21.26a6.91,6.91,0,0,0,4.44-1.35,7.57,7.57,0,0,0,2.28-2.65,6.32,6.32,0,0,0,.65-2.12,2.74,2.74,0,0,0,0-.76,7.73,7.73,0,0,1-.86,2.77,7.44,7.44,0,0,1-2.27,2.5,6.61,6.61,0,0,1-4.22,1.2l-.29,0,.08.28A6.94,6.94,0,0,1,493,168.9a5.08,5.08,0,0,1-4.33.72,10,10,0,0,1-4.35-2.27l-.2-.18-.19.19a12.6,12.6,0,0,1-3.35,2.58,6.72,6.72,0,0,1-4.23.52,9.5,9.5,0,0,1-6.42-4.19l-.34-.53-.17.62a4.33,4.33,0,0,1-2.85,2.84,4.12,4.12,0,0,1-2,.19,9,9,0,0,1-1.88-.7,13.5,13.5,0,0,1-3.37-1.88,4.42,4.42,0,0,1-1.68-2.9l0-.33-.29.16a8.51,8.51,0,0,1-5.34,1,9.49,9.49,0,0,1-3.94-1.44A10.09,10.09,0,0,1,445.43,160.72Z" transform="translate(-56.38 -102.79)"/><path d="M462.45,205.46a24.56,24.56,0,0,0-.74-3.15,13.15,13.15,0,0,0-5.31-6.78,13,13,0,0,0-5.63-2,13.11,13.11,0,0,0-6.74,1.07,11.93,11.93,0,0,0-3.14,2,12.13,12.13,0,0,0-2.53,2.93,12.89,12.89,0,0,0,1.09,15.25,12.37,12.37,0,0,0,2.93,2.54,11.79,11.79,0,0,0,3.38,1.53,13,13,0,0,0,16.4-10.16,25.59,25.59,0,0,0,.29-3.22,7,7,0,0,1,.07.84,6,6,0,0,1,0,1,8.48,8.48,0,0,1-.15,1.39,13.27,13.27,0,0,1-9.66,10.63,13.37,13.37,0,0,1-7.07,0,12.42,12.42,0,0,1-3.52-1.57,12.63,12.63,0,0,1-3-2.63,13.33,13.33,0,0,1-1.14-15.85,12.49,12.49,0,0,1,2.64-3,12.79,12.79,0,0,1,3.26-2.06,13.43,13.43,0,0,1,7-1.05,13.24,13.24,0,0,1,5.78,2.12,13.1,13.1,0,0,1,5.3,7,8.7,8.7,0,0,1,.34,1.36,5.61,5.61,0,0,1,.16,1A6.58,6.58,0,0,1,462.45,205.46Z" transform="translate(-56.38 -102.79)"/><path d="M493.52,190.68a22.83,22.83,0,0,0-.73-3.15,13.15,13.15,0,0,0-5.31-6.78,12.93,12.93,0,0,0-12.37-.94,12.91,12.91,0,0,0-5.67,4.93A12.87,12.87,0,0,0,470.53,200a13,13,0,0,0,6.31,4.08,13.11,13.11,0,0,0,6.83.09,13.1,13.1,0,0,0,9.57-10.25,22.14,22.14,0,0,0,.28-3.22,3.85,3.85,0,0,1,.07.84,4.92,4.92,0,0,1,0,1,9.45,9.45,0,0,1-.15,1.39,13.07,13.07,0,0,1-4.24,7.71,13.3,13.3,0,0,1-12.49,2.88,13.47,13.47,0,0,1-6.57-4.21A13.33,13.33,0,0,1,469,184.47a13.37,13.37,0,0,1,5.9-5.1,13.41,13.41,0,0,1,7-1.06A13.29,13.29,0,0,1,493,187.46a9,9,0,0,1,.34,1.36,5.74,5.74,0,0,1,.15,1A4.94,4.94,0,0,1,493.52,190.68Z" transform="translate(-56.38 -102.79)"/><path d="M467.49,195.42a9.09,9.09,0,0,0-7.34,3.56s.11-.5.59-1.15a6.88,6.88,0,0,1,5.48-2.66C467,195.19,467.51,195.36,467.49,195.42Z" transform="translate(-56.38 -102.79)"/><path d="M506.43,186.55a45.12,45.12,0,0,1-6.83.43,43.2,43.2,0,0,1-6.84-.09,90,90,0,0,1,13.67-.34Z" transform="translate(-56.38 -102.79)"/></g><g id="Device"><path class="cls-10" d="M401.48,453.21h60.44a3,3,0,0,1,3,3h0a3,3,0,0,1-3,3H401.48a3,3,0,0,1-3-3h0A3,3,0,0,1,401.48,453.21Z" transform="translate(-56.38 -102.79)"/><path class="cls-10" d="M411.12,459.24H296.8L285.51,382a6.59,6.59,0,0,1,6.51-7.57l100.38.81c3.25,0,6.36,1.57,6.85,4.79Z" transform="translate(-56.38 -102.79)"/><path d="M352.75,415.92a6.29,6.29,0,1,1-6.28-6.28A6.28,6.28,0,0,1,352.75,415.92Z" transform="translate(-56.38 -102.79)"/><path d="M406.15,458.57c-.14,0-3.33-18.61-7.13-41.6s-6.77-41.67-6.62-41.7,3.33,18.61,7.13,41.61S406.29,458.54,406.15,458.57Z" transform="translate(-56.38 -102.79)"/></g><g id="Table"><path d="M718.78,470.3v.51H56.38v-.51c0-5.95,5.5-10.76,12.29-10.76H706.48C713.27,459.54,718.78,464.35,718.78,470.3Z" transform="translate(-56.38 -102.79)"/></g></svg>