<svg xmlns="http://www.w3.org/2000/svg" viewBox="0 0 364.02 346.87"><defs><style>.cls-1,.cls-8{fill:#fff;}.cls-1,.cls-6{stroke:#000;}.cls-1{stroke-miterlimit:10;}.cls-2{fill:#407bff;}.cls-3{fill:#75382e;}.cls-11,.cls-14,.cls-17,.cls-18,.cls-20,.cls-4,.cls-6{opacity:0.2;}.cls-16,.cls-17,.cls-18,.cls-20,.cls-4{isolation:isolate;}.cls-5{fill:#263238;}.cls-17,.cls-6{fill:none;stroke-linecap:round;stroke-linejoin:round;}.cls-6{stroke-width:0.5px;}.cls-7{fill:#592b23;}.cls-9{fill:#d7504d;}.cls-10{fill:#805345;}.cls-12{fill:#694439;}.cls-13{fill:#8c5c4c;}.cls-15{fill:#70493d;}.cls-17{stroke:#fff;}.cls-19{fill:#996452;}.cls-20{fill:#737373;}.cls-21{fill:#734b3f;}</style></defs><title>partnerup_lp_2</title><g id="Character_1" data-name="Character 1"><circle class="cls-1" cx="316.31" cy="122.73" r="37.71"/><path d="M411.31,225.46a5,5,0,0,1-.34.59c4.2,3,.24,7.3-1,8a11.07,11.07,0,0,1-3,1.22c-4.95,1.29-9.35-1.17-11.71-2.37-3.38-1.74-3.52-8.4-5.55-11.78-2.66-4.41-7.29-15.39-3.91-23.92a18.22,18.22,0,0,1,3.23-5.63,7.81,7.81,0,0,1,7.84-1.78,17,17,0,0,1,7.24,4.71,32.45,32.45,0,0,1,8.24,13.13c1.49,4.69,0,6.32-.86,9.37l0,.1A10.75,10.75,0,0,1,411.31,225.46Z" transform="translate(-72.52 -89.56)"/><path class="cls-2" d="M414.05,238.05c-2-2.49-19.65-4.5-19.65-4.5l-10.88,1.25s-14.23,2.54-18.85,5a8.4,8.4,0,0,0-.94.61,37.68,37.68,0,0,0,51.22-1A10.83,10.83,0,0,0,414.05,238.05Z" transform="translate(-72.52 -89.56)"/><path class="cls-1" d="M414.05,238.05c-2-2.49-19.65-4.5-19.65-4.5l-10.88,1.25s-14.23,2.54-18.85,5a8.4,8.4,0,0,0-.94.61,37.68,37.68,0,0,0,51.22-1A10.83,10.83,0,0,0,414.05,238.05Z" transform="translate(-72.52 -89.56)"/><path class="cls-3" d="M398,227.54a8.33,8.33,0,0,0,.48,8.4s6.6,6.7,2,7-13.15-4-15-7.77a15.5,15.5,0,0,0,1.8-9.32,39.27,39.27,0,0,0-1.45-7.35Z" transform="translate(-72.52 -89.56)"/><path class="cls-4" d="M396.22,222.9l-5.29-1.32a3.17,3.17,0,0,0-4.79,2.85c2.79,3.06,6.89,6.11,10.93,7a8.82,8.82,0,0,1,.91-3.92C398,227.46,396.23,223,396.22,222.9Z" transform="translate(-72.52 -89.56)"/><path class="cls-3" d="M381.33,206.91c.59,9,.64,12.79,5.12,17.49,6.75,7.06,17.44,4.63,19.54-4.3,1.83-8,.6-21.36-8.06-25.12S380.74,197.91,381.33,206.91Z" transform="translate(-72.52 -89.56)"/><path class="cls-5" d="M384.6,207c1.86.84,1.93,9.3-2.42,9.14S378.51,204.26,384.6,207Z" transform="translate(-72.52 -89.56)"/><path class="cls-3" d="M377.68,214.79a7.25,7.25,0,0,0,4.26,3.6c2.37.7,3.77-3.1,3.05-5.54a4.82,4.82,0,0,0-5.3-3.34C377.37,209.88,376.54,212.61,377.68,214.79Z" transform="translate(-72.52 -89.56)"/><path class="cls-6" d="M382.77,214.51a3.31,3.31,0,0,0-3.37-3.21" transform="translate(-72.52 -89.56)"/><path d="M398.82,196.15c-.84-2.54-3.72-4.61-8.87-5.51l-.25,0c-4.91-.81-10.19-2.15-12,3.3-4.83,14.24-12.91,12.66-11,16.88a3.17,3.17,0,0,0,3,1.64,2.38,2.38,0,0,0,.9-.22c-.35.34-.75.7-1.12,1.07-2,2.07-3.92,4.49-4.62,7.34a4,4,0,0,0,4,5.37c-.17.21-2.21,2.51-2.52,3.09-3.47,6.38-.74,13.4,8.2,10.48,0,0,6,2.19,8.67-3.82,0,0,4.31-.35,5.7-4.27h0l.12-.28a10.56,10.56,0,0,0-.07-9c-.78-1.6-1.64-3.16-2.42-4.76a9.11,9.11,0,0,1-1-3.07c.16-.35.32-.7.49-1l.22-.38a14.56,14.56,0,0,1,5.25-5.68C397.39,203.91,400.06,199.57,398.82,196.15Z" transform="translate(-72.52 -89.56)"/><path class="cls-5" d="M393.21,210.28c0,1,.49,1.77,1.09,1.8s1.07-.71,1.07-1.67-.49-1.77-1.09-1.81S393.21,209.32,393.21,210.28Z" transform="translate(-72.52 -89.56)"/><path class="cls-5" d="M402.15,210.62c0,.93.49,1.71,1.09,1.75s1.07-.69,1.06-1.62-.5-1.71-1.09-1.75S402.14,209.69,402.15,210.62Z" transform="translate(-72.52 -89.56)"/><path class="cls-5" d="M391.46,206.86a.41.41,0,0,0,.33-.09,3.24,3.24,0,0,1,3-.71.4.4,0,0,0,.53-.28.49.49,0,0,0-.31-.57,4.08,4.08,0,0,0-3.83.85.45.45,0,0,0,0,.63A.46.46,0,0,0,391.46,206.86Z" transform="translate(-72.52 -89.56)"/><path class="cls-5" d="M405.34,206.19a.35.35,0,0,0,.22-.18.5.5,0,0,0-.2-.6,3.78,3.78,0,0,0-3.67-.39.42.42,0,0,0-.12.57.43.43,0,0,0,.56.21,3,3,0,0,1,2.9.34A.35.35,0,0,0,405.34,206.19Z" transform="translate(-72.52 -89.56)"/><path class="cls-7" d="M399.74,210.08a30.21,30.21,0,0,0,2.79,5.63.7.7,0,0,1-.38,1,4.45,4.45,0,0,1-2.43-.06Z" transform="translate(-72.52 -89.56)"/><path class="cls-5" d="M393.94,208.63l2.1-.41S394.84,209.73,393.94,208.63Z" transform="translate(-72.52 -89.56)"/><path class="cls-5" d="M403,209l2.1-.4S403.9,210.11,403,209Z" transform="translate(-72.52 -89.56)"/><path class="cls-5" d="M399.05,219.24a21.42,21.42,0,0,0-1.64,2.6l-.51-.17c-2.32-.82-3.12-2-3.31-3a3.3,3.3,0,0,1,.11-1.5,3.1,3.1,0,0,1,.35-.78,11.52,11.52,0,0,0,4.22,2.54C398.74,219.14,399.05,219.24,399.05,219.24Z" transform="translate(-72.52 -89.56)"/><path class="cls-8" d="M398.27,219l-.51.76c-2.18-.78-3.61-1.61-4.06-2.52a3.1,3.1,0,0,1,.35-.78A11.52,11.52,0,0,0,398.27,219Z" transform="translate(-72.52 -89.56)"/><path class="cls-9" d="M396.9,221.67c-2.32-.82-3.12-2-3.31-3A7.87,7.87,0,0,1,396,220.1,3,3,0,0,1,396.9,221.67Z" transform="translate(-72.52 -89.56)"/><circle class="cls-2" cx="321.9" cy="285.55" r="42.71" transform="translate(-158.82 59.85) rotate(-23.13)"/><circle class="cls-1" cx="321.9" cy="285.55" r="42.71" transform="translate(-158.82 59.85) rotate(-23.13)"/><path d="M350.46,314.72c-2.21-2.81-22.34-5.74-22.34-5.74L315.89,311s-16.12,2.88-21.36,5.7a1.91,1.91,0,0,0-.76.95,41.61,41.61,0,0,0,28.13,10.58,42.54,42.54,0,0,0,29.58-11.93A12.6,12.6,0,0,0,350.46,314.72Z" transform="translate(-72.52 -89.56)"/><path d="M353.25,310.69c1.13-9.07-7.68-13.41-7.28-26.51.68-22.47-20.57-23.57-28.86-22.73s-8.38,9.87-8.38,9.87-12.18,4.55-6.44,21.72c5.21,15.6-6.29,8.55-1.88,20.75,17.17-4.45,29-8.36,43.4-4.12l.25-6.62,2.54,7.73Z" transform="translate(-72.52 -89.56)"/><path class="cls-10" d="M332.21,320.92c2.36-.89.77-7.86-1.37-9.27-2.42-1.59-3.65-3-3.46-5.5a18.19,18.19,0,0,1,.92-4.3l-2.74-1.33L315.43,292c1.58,5.65,2.3,15.8-2.28,19.63,0,0,3.46,2.31,8.5,5.93C321.65,317.54,329.23,322.05,332.21,320.92Z" transform="translate(-72.52 -89.56)"/><path class="cls-11" d="M327.35,306.69c-2.69-1.29-5.72-3.67-5.66-6.7a14,14,0,0,1,.44-3.3l5.8,6.4A18.64,18.64,0,0,0,327.35,306.69Z" transform="translate(-72.52 -89.56)"/><path class="cls-10" d="M312.68,281.57c1.73,9.47,2.26,13.5,7.64,18.06,8.08,6.86,19.25,3.31,20.36-6.33,1-8.67-2-22.69-11.72-25.86A12.33,12.33,0,0,0,312.68,281.57Z" transform="translate(-72.52 -89.56)"/><path class="cls-5" d="M325.32,283.57c.14,1,.76,1.79,1.39,1.74s1-.89.89-1.9-.76-1.78-1.39-1.74S325.18,282.56,325.32,283.57Z" transform="translate(-72.52 -89.56)"/><path class="cls-5" d="M334.73,282.7c.13,1,.75,1.73,1.38,1.68s1-.86.89-1.84-.75-1.73-1.38-1.68S334.59,281.72,334.73,282.7Z" transform="translate(-72.52 -89.56)"/><path class="cls-5" d="M323,280.23a.4.4,0,0,0,.33-.14,3.49,3.49,0,0,1,3.07-1.16.43.43,0,0,0,.52-.36.51.51,0,0,0-.4-.56,4.31,4.31,0,0,0-3.89,1.42.48.48,0,0,0,.05.67A.5.5,0,0,0,323,280.23Z" transform="translate(-72.52 -89.56)"/><path class="cls-5" d="M337.47,277.63a.37.37,0,0,0,.19-.23.5.5,0,0,0-.29-.59,4,4,0,0,0-3.89.09.43.43,0,0,0,0,.61.44.44,0,0,0,.6.15,3.16,3.16,0,0,1,3.09,0A.45.45,0,0,0,337.47,277.63Z" transform="translate(-72.52 -89.56)"/><path class="cls-12" d="M332.13,282.46a32.65,32.65,0,0,0,3.69,5.52.73.73,0,0,1-.24,1.15,4.72,4.72,0,0,1-2.55.27Z" transform="translate(-72.52 -89.56)"/><path class="cls-5" d="M325.85,281.75,328,281S327,282.77,325.85,281.75Z" transform="translate(-72.52 -89.56)"/><path class="cls-5" d="M335.4,280.9l2.14-.71S336.49,281.93,335.4,280.9Z" transform="translate(-72.52 -89.56)"/><path d="M316.29,284.57s4.26-7.85,3.47-13.83c0,0,9.2-3.3,17.61,6.07,1.34,1.49,2.3,4.09,3.57,6.29,0,0,.18-18.31-16.07-18.36s-17.35,22.86-8.82,29.76A11.87,11.87,0,0,1,316.29,284.57Z" transform="translate(-72.52 -89.56)"/><path class="cls-10" d="M310.49,289.61a7.74,7.74,0,0,0,5,3.19c2.59.41,3.53-3.77,2.44-6.23a5.1,5.1,0,0,0-6-2.77C309.5,284.5,309,287.49,310.49,289.61Z" transform="translate(-72.52 -89.56)"/><path class="cls-6" d="M315.78,288.62a3.53,3.53,0,0,0-1.38-2.27,3.5,3.5,0,0,0-2.58-.63" transform="translate(-72.52 -89.56)"/><path class="cls-5" d="M332.21,291.49a21.22,21.22,0,0,0-1.58,2.78l-.55-.16c-2.44-.74-3.33-1.89-3.58-2.94a3.23,3.23,0,0,1,.05-1.56,3.19,3.19,0,0,1,.32-.83,12.09,12.09,0,0,0,4.5,2.44C331.88,291.4,332.21,291.49,332.21,291.49Z" transform="translate(-72.52 -89.56)"/><path class="cls-8" d="M331.37,291.22l-.48.81c-2.31-.7-3.83-1.5-4.34-2.42a3.19,3.19,0,0,1,.32-.83A12.09,12.09,0,0,0,331.37,291.22Z" transform="translate(-72.52 -89.56)"/><path class="cls-9" d="M330.08,294.11c-2.44-.74-3.33-1.89-3.58-2.94a8.11,8.11,0,0,1,2.55,1.36A3,3,0,0,1,330.08,294.11Z" transform="translate(-72.52 -89.56)"/><circle class="cls-2" cx="321.4" cy="136.59" r="46.53" transform="translate(-74.97 177.71) rotate(-45)"/><circle class="cls-1" cx="321.4" cy="136.59" r="46.53" transform="translate(-74.97 177.71) rotate(-45)"/><path d="M352.52,168.37c-2.41-3.07-22.77-5.3-22.77-5.3l-14.89,1.29s-17.56,3.14-23.26,6.2a8.9,8.9,0,0,0-1.16.76,46.51,46.51,0,0,0,63.2-1.19A13.69,13.69,0,0,0,352.52,168.37Z" transform="translate(-72.52 -89.56)"/><path d="M328.4,102.47c-14.5-4.93-19.71,7-19.71,7a7.09,7.09,0,0,0-3.86,2.22,7.73,7.73,0,0,0-3.33,3c-3,4.69-1.85,10.7-.05,13.81,1.26,2.19,7.15-2.06,8.65-8.43,7.21,2.44,21.17,7.09,23.65,7.26,3.38.24,8.68-3.86,9.32-9.35C344,109.66,337.54,105.58,328.4,102.47Z" transform="translate(-72.52 -89.56)"/><path class="cls-13" d="M314.46,164.26s1.67-7.13-1.4-20l.69-.29c-.42-1.81-.89-3.48-1.33-4.93a.28.28,0,0,1,0-.06l16.9,11.62c-.61,4.05.47,12,1.18,15.35,0,0,1.9,6.13-6.11,6C318.52,171.82,314.46,164.26,314.46,164.26Z" transform="translate(-72.52 -89.56)"/><g class="cls-14"><path d="M320.23,153.49a12.79,12.79,0,0,0,9.07,3.81c-.05-.29,0-.74-.08-1-.05-.47-.05-1.18-.07-1.67s0-1.25,0-1.87c0-.25.13-.21.16-.46l.06-.51-10.11-3.43C318.43,148.93,318.54,151.54,320.23,153.49Z" transform="translate(-72.52 -89.56)"/></g><path class="cls-13" d="M306.55,128.69a15.16,15.16,0,0,1,18.26-18.23c11.42,2.65,15.51,18.67,14.73,28.89-.87,11.36-13.6,18.53-23.27,11.4-6.43-4.74-7.3-11.21-9.72-22.06Z" transform="translate(-72.52 -89.56)"/><path d="M314.73,111.24c-4,.81-12.31,8.84-12.31,8.84a18.58,18.58,0,0,0,1.58,5,9.68,9.68,0,0,0-1.24,1.24,8.29,8.29,0,0,0-1.11,1.7c-.07.14-.14.29-.2.43a9,9,0,0,0,.57,1.24c1.18,2.1,4.91,6.73,8.15,10.63a16.64,16.64,0,0,1-.74-1.79c-.77-2.16-1.72-5.17-2.7-8.8a4.6,4.6,0,0,1,2.08.57c4.19,2.22,5.72,4.3,7.48,2.26,1.07-1.25-.28-5.21-1.16-8.58a23,23,0,0,1-.69-4.84c0-2.61,2.59-4.76,2.59-4.76a4.19,4.19,0,0,0,.31-.47c3.59,2.31,9.91,5.18,16.14,2.11C342.78,111.42,322.73,102.36,314.73,111.24Z" transform="translate(-72.52 -89.56)"/><path d="M322.26,131.09c.1,1.13.78,2,1.52,1.91s1.26-1,1.16-2.18-.78-2-1.52-1.91S322.16,130,322.26,131.09Z" transform="translate(-72.52 -89.56)"/><path d="M333.22,130.35c.1,1.13.78,2,1.52,1.91s1.26-1,1.16-2.18-.78-2-1.52-1.91S333.12,129.22,333.22,130.35Z" transform="translate(-72.52 -89.56)"/><path class="cls-15" d="M330,129s4.08,5.3,5.43,7.49c-1.45,1.56-4.22,1.15-4.22,1.15Z" transform="translate(-72.52 -89.56)"/><path d="M319.35,125a.55.55,0,0,0,.53-.12,4.19,4.19,0,0,1,3.67-1.19.53.53,0,0,0,.25-1,5.33,5.33,0,0,0-4.65,1.45.53.53,0,0,0,0,.75A.62.62,0,0,0,319.35,125Z" transform="translate(-72.52 -89.56)"/><path class="cls-13" d="M303.52,136.58a10.84,10.84,0,0,0,6,5.84c3.57,1.4,4.51-2.46,3.87-6-.58-3.22-1.88-7.1-5.63-7S302.18,133.3,303.52,136.58Z" transform="translate(-72.52 -89.56)"/><path class="cls-6" d="M305.86,133.18a2.1,2.1,0,0,1,2.14-.94,3.6,3.6,0,0,1,2.08,1.27,5.59,5.59,0,0,1,1.31,2.64" transform="translate(-72.52 -89.56)"/><path d="M338.17,124.09a.56.56,0,0,0,.26-.17.54.54,0,0,0-.07-.75,5.23,5.23,0,0,0-4.7-1.11.54.54,0,0,0-.35.67.53.53,0,0,0,.66.35,4.06,4.06,0,0,1,3.71.92A.54.54,0,0,0,338.17,124.09Z" transform="translate(-72.52 -89.56)"/><path class="cls-8" d="M323,140a15.25,15.25,0,0,0,7.52,1.71s-.87,3.28-3.94,3C322.91,144.38,323,140,323,140Z" transform="translate(-72.52 -89.56)"/><path d="M326.5,138.56a7.39,7.39,0,0,1,4.78,1.83,3.71,3.71,0,0,1,1.11,1.53c.56,1.78-5.77.54-8.36-.46s-2-2-.53-2.61A8.53,8.53,0,0,1,326.5,138.56Z" transform="translate(-72.52 -89.56)"/><path class="cls-2" d="M211.25,433c-1.82-11.54-4.62-27.74-8.89-45-5.41-21.77-12.17-45.3-17.71-63.74-5.86-19.42-10.31-33.15-10.31-33.15l47.8-3s19.56,96.52,24.15,133.78a39.45,39.45,0,0,1,0,11Z" transform="translate(-72.52 -89.56)"/><path class="cls-16" d="M211.25,433c-1.82-11.54-4.62-27.74-8.89-45-5.41-21.77-12.17-45.3-17.71-63.74-5.86-19.42-10.31-33.15-10.31-33.15l47.8-3s19.56,96.52,24.15,133.78a39.45,39.45,0,0,1,0,11Z" transform="translate(-72.52 -89.56)"/><path class="cls-16" d="M190.05,316.71l-4.48,9.64c5,18.43,10.79,38.68,16.47,60.37C204.16,365.35,200.79,329.4,190.05,316.71Z" transform="translate(-72.52 -89.56)"/><path class="cls-2" d="M185.44,430.54c5.75-35.65,10.92-140.81,10.92-140.81l-46.93,3s4.82,90.53.66,134.08l-.66,6.07h35.69Z" transform="translate(-72.52 -89.56)"/><path class="cls-16" d="M187,430.54c6-35.65,11.38-140.81,11.38-140.81l-48.91,3s5,90.53.69,134.08l-.69,6.07h37.2Z" transform="translate(-72.52 -89.56)"/><path class="cls-16" d="M195.65,302.22a2.1,2.1,0,1,1-2.09-2.1A2.1,2.1,0,0,1,195.65,302.22Z" transform="translate(-72.52 -89.56)"/><path class="cls-17" d="M152.5,318.15a17.61,17.61,0,0,0,17.53-18" transform="translate(-72.52 -89.56)"/><path class="cls-17" d="M198.07,300.12s.61,18.61,0,18.85-4.51.84-4.51.84" transform="translate(-72.52 -89.56)"/><g class="cls-18"><path class="cls-8" d="M214.57,301.16c-.27,2.72,1.26,6.21,2.51,8.52,2.2,4.08,5.8,6.66,10.54,6.45.48,0,.48-.77,0-.75-4.9.22-8.36-2.74-10.36-7-.93-2-2.16-4.95-1.94-7.21,0-.48-.71-.48-.75,0Z" transform="translate(-72.52 -89.56)"/></g><path class="cls-19" d="M222.5,210.24l10.25,18.26,22.6-28.41,10.72,4s-27.86,48.62-34.87,49.45-24.5-31.4-24.5-31.4Z" transform="translate(-72.52 -89.56)"/><path class="cls-1" d="M212.48,185.93c7.36,10.9,19.52,31.6,19.52,31.6l-27.91,16s-18-29.71-17.12-41.41C188,179.41,204.91,178.74,212.48,185.93Z" transform="translate(-72.52 -89.56)"/><path class="cls-1" d="M153.55,182.89c1.73-.27,3.5-.52,5.26-.74a242.52,242.52,0,0,1,27.85-2c1.15,0,2.29,0,3.4.13a129.11,129.11,0,0,1,15.68,1.93s10.57,48.63,19.56,113.33c-29.28,4.5-58.14,5.59-81,1.61-.58-5,3.89-24.21,2.87-43.52-.44-8.25-1.13-17.33-2.29-26.84-1.6-13.65-5.08-27.3-8.68-40.56C136.18,186.26,144.77,184.27,153.55,182.89Z" transform="translate(-72.52 -89.56)"/><polygon class="cls-20" points="80.31 145.32 81.73 145.09 77.78 123.35 89.08 160.13 82.95 162.19 80.31 145.32"/><path class="cls-19" d="M256.56,198.14s1.33-9.57,3.53-11.08,2.64,2.28,2.64,2.28-.23-4.19,1.53-4.53c2.12-.4,2.56,3.56,2.56,3.56s0-3.43,1.54-3.62,2.47,4.23,2.47,4.23.42-2.42,1.6-1.93,3.1,9.86,1.8,12.93-13.43,5.17-16.16,5c-.78-.05-2.1-.36-3.76-3.57a1.46,1.46,0,0,1,.51-1.91l1.69-1.07Z" transform="translate(-72.52 -89.56)"/><path class="cls-11" d="M262.93,189.31v0l.05,7.31a.21.21,0,0,1-.2.19.2.2,0,0,1-.21-.18l0-7.31a.19.19,0,0,1,.2-.18A.18.18,0,0,1,262.93,189.31Z" transform="translate(-72.52 -89.56)"/><path class="cls-11" d="M267.05,188.55h0l.6,7a.19.19,0,0,1-.18.19.2.2,0,0,1-.22-.16l-.61-7a.2.2,0,0,1,.19-.19A.19.19,0,0,1,267.05,188.55Z" transform="translate(-72.52 -89.56)"/><path class="cls-11" d="M271.06,189.19l.6,5.21a.2.2,0,0,1-.4,0l-.6-5.2a.19.19,0,0,1,.18-.2A.2.2,0,0,1,271.06,189.19Z" transform="translate(-72.52 -89.56)"/><path class="cls-19" d="M158.14,182.25c5.8-6.83,2.9-22.69.3-31.15l21.86,13.53a21.83,21.83,0,0,0-.69,3.21,11.4,11.4,0,0,0,.45,5.82c.6,1.54,3.47,6.52,3.47,6.52s5.1,9.39-7.1,10.86C164.34,191.94,158.14,182.25,158.14,182.25Z" transform="translate(-72.52 -89.56)"/><path class="cls-4" d="M163.3,159.35c.48,10.29,11.39,13.54,16.77,14.33a11.55,11.55,0,0,1-.45-5.83Z" transform="translate(-72.52 -89.56)"/><path class="cls-5" d="M177.5,118.77c10-2.07,4.79,6,15.83,7.47.29,6.7-7.33,14.27-10.24,10.16C179.9,131.88,169.17,120.41,177.5,118.77Z" transform="translate(-72.52 -89.56)"/><path class="cls-19" d="M153.93,144.09c4.3,11.55,6.48,18.15,14.42,22.32,12,6.27,25-3.32,24.35-16-.59-11.38-7.52-28.36-20.79-29.41C158.84,120,149.64,132.54,153.93,144.09Z" transform="translate(-72.52 -89.56)"/><path class="cls-5" d="M170.69,142c.36,1.2,1.31,2,2.12,1.73s1.17-1.43.81-2.63-1.31-2-2.12-1.73S170.33,140.79,170.69,142Z" transform="translate(-72.52 -89.56)"/><path class="cls-5" d="M183,139.27c.36,1.21,1.32,2,2.13,1.73s1.17-1.42.8-2.63-1.31-2-2.12-1.73S182.67,138.07,183,139.27Z" transform="translate(-72.52 -89.56)"/><path class="cls-21" d="M180.39,139.48s5.74,4.83,7.73,6.89c-1.27,2-4.46,2.21-4.46,2.21Z" transform="translate(-72.52 -89.56)"/><path class="cls-5" d="M167.57,137.57a.63.63,0,0,0,.56-.25,5,5,0,0,1,3.83-2.13.61.61,0,0,0,.63-.57A.58.58,0,0,0,172,134a6.23,6.23,0,0,0-4.87,2.64.57.57,0,0,0,.13.82A.63.63,0,0,0,167.57,137.57Z" transform="translate(-72.52 -89.56)"/><path class="cls-5" d="M188.39,132.31a.6.6,0,0,0,0-1.05,6.1,6.1,0,0,0-5.49-.12.58.58,0,0,0-.24.8.59.59,0,0,0,.81.23,4.75,4.75,0,0,1,4.35.14A.61.61,0,0,0,188.39,132.31Z" transform="translate(-72.52 -89.56)"/><path class="cls-5" d="M183.87,152.74a34.46,34.46,0,0,0-2.11,4.63c-.29-.06-.59-.11-.88-.18-4-.82-5.57-2.51-6.09-4.15a5.67,5.67,0,0,1,.25-3.84c1.86,1.7,5.5,2.75,7.48,3.23C183.38,152.6,183.87,152.74,183.87,152.74Z" transform="translate(-72.52 -89.56)"/><path class="cls-8" d="M182.52,152.43l-.66,1.35c-3.74-.78-6.26-1.82-7.21-3.22a5.32,5.32,0,0,1,.4-1.36C176.92,150.91,180.55,152,182.52,152.43Z" transform="translate(-72.52 -89.56)"/><path class="cls-9" d="M180.9,157.28c-4-.82-5.57-2.51-6.09-4.15a13.19,13.19,0,0,1,4.24,1.78A5,5,0,0,1,180.9,157.28Z" transform="translate(-72.52 -89.56)"/><path d="M189.46,109.48c-8.13-.78-10.87.1-17.57,2.77a13.63,13.63,0,0,0,1-7.46c-15.49,13.34-22.22,7.08-29.74,14.72-4.81,4.87-.1,11-.1,11s-12.49,8.11,6.34,22.15c.6,1.54.76,3,.15,4-1.13,1.8-3.21,2.72-5.16,3.55a14.72,14.72,0,0,0,9.75-.63,12.44,12.44,0,0,1-3.07,5.27,12.76,12.76,0,0,0,11-5.24l-3.12-8.5a8.86,8.86,0,0,1,2.34.06,31.82,31.82,0,0,0,.48-8.71,26.26,26.26,0,0,0-2.14-6.58s7-4.1,7.11-9c0,0,12.43,3.65,19.06-1.93S186.06,112,189.46,109.48Z" transform="translate(-72.52 -89.56)"/><path class="cls-19" d="M152.11,155.32a11.75,11.75,0,0,0,7.66,4.8c4.14.68,4.33-3.56,2.87-7.17-1.32-3.25-3.55-7-7.56-6S150,152.18,152.11,155.32Z" transform="translate(-72.52 -89.56)"/><path class="cls-6" d="M153.89,151.25A2.34,2.34,0,0,1,156,149.8a4,4,0,0,1,2.51.86,6,6,0,0,1,2,2.47" transform="translate(-72.52 -89.56)"/><path class="cls-19" d="M127.65,225.05s10.73,42,17.91,46.56,58.53-17.33,58.53-17.33l-6.16-10-41.69,6.2c-1.34-1.46-6.52-34.14-6.52-34.14Z" transform="translate(-72.52 -89.56)"/><path class="cls-1" d="M148.86,203.68c2.2,15,5.39,31,5.39,31l-28.41,4.6s-3.65-47.43,10.62-53C141.36,186.26,146.47,187.32,148.86,203.68Z" transform="translate(-72.52 -89.56)"/><path class="cls-19" d="M216.19,242.19l.76-1.47c.87-2.44-1.42-4.09-1.42-4.09.12-2.08-1.82-4.33-2.61-4.85s-9.06,6-9.06,6l-2-5.1a29,29,0,0,0-5.1,6.66l-4.41,7c1.23,5.74,4.06,7.37,7.16,8.69.52.22,7.14-1.24,10.32-2.1,2.9-.79,7.35-3.07,8.33-6.93S216.19,242.19,216.19,242.19Z" transform="translate(-72.52 -89.56)"/><polygon class="cls-4" points="83.72 160.92 79.99 170.35 87.15 160.41 83.72 160.92"/><path class="cls-17" d="M162.41,386.92c-3,3.61-1.31,10.16.94,14.25" transform="translate(-72.52 -89.56)"/><path class="cls-17" d="M216,369.94c4-2.47,4.49-9.21,3.66-13.8" transform="translate(-72.52 -89.56)"/><path d="M125,431c30.56-.18,61.12-.17,91.68-.2.9.1,1.79.29,2.68.3h84.42c.79,0,1.59-.14,2.39-.22l97.41,0h3.24c12.84.31-11.51.32,1.33,0q11.89.09,23.77.18a13.57,13.57,0,0,1,3,.23,2.24,2.24,0,0,1,1.68,2.38c0,1.52-.74,2.38-1.86,2.56a18.89,18.89,0,0,1-2.71.09c-130.84,0-224.49,0-355.33,0-1.69,0-4.23.76-4.12-2.69.11-3.23,2.59-2.52,4.32-2.54,6.82-.1,13.64-.13,20.46-.18,7.45.05,14.91.06,22.36.19" transform="translate(-72.52 -89.56)"/></g></svg>