<svg id="Layer_1" data-name="Layer 1" xmlns="http://www.w3.org/2000/svg" viewBox="0 0 1280 350"><title>vertical lockup</title><path d="M305.62,175c0,27.31-.29,54.63.1,81.93.26,17.56-7,25.73-24.16,25.62-53.13-.34-106.28-.25-159.42-.05C106.2,282.59,99,275,99,258.35q.31-83.1,0-166.2c-.07-16.57,7.2-24.65,22.94-24.66,53.14,0,106.28.09,159.42-.07,16.8,0,24.63,8,24.37,25.68C305.32,120.41,305.62,147.72,305.62,175Zm-197.55-2c0,26.51.56,53-.23,79.53-.43,14.74,3.82,21.06,19,20.84q75.16-1.07,150.34,0c14.4.19,19.93-4.61,19.73-20.09-.64-52.23-.51-104.49-.06-156.73.11-13.6-3.88-20-17.86-19.86q-76.29.7-152.59,0c-13.36-.12-18.89,4.8-18.5,19.13C108.58,121.51,108.07,147.26,108.07,173Z"/><path d="M138.78,233.51c55.81-7,65.29-19.8,59-77.28L172,149.44l51.23-46.71L266,149.31,243.52,156C229.66,247.92,200.81,270.45,138.78,233.51Z"/><path d="M379.61,221.82a13.06,13.06,0,0,1-22.29-9.23q0-5.42-.37-54.27t.19-54.26a12.46,12.46,0,0,1,4.1-9,13.25,13.25,0,0,1,9.32-3.63,9.06,9.06,0,0,1,1.87.19,3.19,3.19,0,0,0,.93-.19q22.75-3.73,35.62-3,25.35,1.66,38.41,17.71,10.08,12.31,10.26,26.29t-8.77,23.5a49.17,49.17,0,0,1-18.27,12.49,67.73,67.73,0,0,1-22.38,5q-3.74.18-8,0t-10.35-.75q-6.06-.56-6.8-.74.38,28.16.37,40.65A12.56,12.56,0,0,1,379.61,221.82Zm40.56-77.2q6.15-2.52,9.13-6.06a11.13,11.13,0,0,0,2.06-3.08q.56-1.39-.28-5.31a18.46,18.46,0,0,0-3.83-7.65q-6-7.27-19.95-8-9.33-.56-24.24,1.68-.19,12.5-.19,29.65h.19l8.76.93q4.85.38,8.39.56a61.08,61.08,0,0,0,6.9,0A36.7,36.7,0,0,0,420.17,144.62Z"/><path d="M481.22,221.91a41.24,41.24,0,0,1-16.23-11,33.4,33.4,0,0,1-7.83-16.22A59.28,59.28,0,0,1,456,183.5a57.69,57.69,0,0,1,4.85-23.5,62.88,62.88,0,0,1,18.84-25,43.52,43.52,0,0,1,27.59-9.51,54.32,54.32,0,0,1,12.12,1.5,27,27,0,0,1,8.4,3.91h.93l1.86-.18a11.87,11.87,0,0,1,8.3,3.35,12.88,12.88,0,0,1,4.2,8.21l1.3,12.86q.38,8.22.94,28l.37,10.07q.38,9.31.47,12.21a32.73,32.73,0,0,1-.28,5.5,17.68,17.68,0,0,1-4,9.23,11.19,11.19,0,0,1-8.49,4,12.49,12.49,0,0,1-7.74-2.14q-3.45-2.34-4.94-8.49a25.42,25.42,0,0,1-10.44,7.65,43.88,43.88,0,0,1-14.55,3.35A45.92,45.92,0,0,1,481.22,221.91Zm26.29-27.22a20.42,20.42,0,0,0,3.36-2.8l2.79-2.61,3.17-4.48a6.46,6.46,0,0,1,2.61-1.86q0-15.66-.93-26.48l-1.86-1.31L514,153.1,512.36,152a20.58,20.58,0,0,0-4.66-.75q-6.72,0-13,5.22t-10,14.54a34.93,34.93,0,0,0-3,13.06,14.31,14.31,0,0,0,2.33,8.39,12.92,12.92,0,0,0,6.62,4.85,16.56,16.56,0,0,0,5.22.93A22.65,22.65,0,0,0,507.51,194.69Z"/><path d="M558,211.47q-.19-18.47-.19-29.09a12.36,12.36,0,0,1,0-4.29q-.18-20.7-.18-37.48,0-7.28,3.82-11.1a12.6,12.6,0,0,1,9.23-3.82,12.89,12.89,0,0,1,7.18,2.14c2.17,1.44,3.76,4,4.76,7.56q7.46-4.11,22.37-9.33a12.12,12.12,0,0,1,9.42.47,11.63,11.63,0,0,1,6.25,7,12.08,12.08,0,0,1-.47,9.42,11.6,11.6,0,0,1-7,6.25A289.62,289.62,0,0,0,584,160.94a103.52,103.52,0,0,0-.19,17q.19,11.76.38,33.2a12.87,12.87,0,0,1-3.83,9.32,12.32,12.32,0,0,1-9.13,3.92,12.62,12.62,0,0,1-9.23-3.92A11.92,11.92,0,0,1,558,211.47Z"/><path d="M666.41,222.29a22.29,22.29,0,0,1-3.91-1.87l-4.85-2.8a54.37,54.37,0,0,1-11.19-8,19.11,19.11,0,0,1-3.92-8.12,80.6,80.6,0,0,1-.93-11.84v-3.73q-.18-5.4-.18-25.17,0-8,.18-12.12h-3.54a11.4,11.4,0,0,1-8.11-3.27,10.91,10.91,0,0,1-3.45-8.29,11.6,11.6,0,0,1,3.54-8.67,11.41,11.41,0,0,1,8.2-3.45h3.36l.19-8v-5.78q.18-6,4-9.24a13.24,13.24,0,0,1,8.86-3.26,13.57,13.57,0,0,1,9.23,3.54,12.3,12.3,0,0,1,4,9.7l-.37,12.68h6.9q6.72,0,10.07,3.54a12.52,12.52,0,0,1,3.36,9,12.2,12.2,0,0,1-3.54,8.85q-3.55,3.65-10.45,3.64H667q0,7.65-.18,11.38-.19,3.92-.19,11.18,0,11.94.75,20.7.74.75.93.75l1.86,1.31,1.49.74,1.68.93,1.5.75a28.09,28.09,0,0,1,5.78,3.36,12.06,12.06,0,0,1,5.78,10.44,13.86,13.86,0,0,1-3.73,9.42,11.61,11.61,0,0,1-8.95,4.19A12.78,12.78,0,0,1,666.41,222.29Z"/><path d="M778.56,221.17a11.64,11.64,0,0,1-8.77,3.35,12,12,0,0,1-8.58-3.91,11.64,11.64,0,0,1-3.35-8.77c0-1.36.15-5.47.47-12.3s.49-12.12.55-15.85-.09-8.05-.46-13a50.83,50.83,0,0,0-2-11.84,11.19,11.19,0,0,0-4.48-5.87,16.63,16.63,0,0,0-8.39-2.7,19.58,19.58,0,0,0-9.6,1.21,13.28,13.28,0,0,0-6.44,4.94,21.91,21.91,0,0,0-.84,3.26q-.09.84-.09,2.52,0,6.52.19,23.4t.18,25.64a13.05,13.05,0,1,1-26.1,0q0-7.83-.28-32.07t-1.59-37.11q-.93-6.71,2.61-10.72a11.65,11.65,0,0,1,9.14-4q10.07.55,11.75,9.7,8.57-10.81,23.68-11.38,13.25.19,21.63,7.18a39.13,39.13,0,0,1,12.12,18.55,73.81,73.81,0,0,1,2.89,16q.84,9.71.75,16.32t-.56,17.62q-.47,11-.47,11.19A12,12,0,0,1,778.56,221.17Z"/><path d="M816.14,219.68a43.5,43.5,0,0,1-17.06-17,47.74,47.74,0,0,1-5.88-23.5q0-16.23,6-28.07a45.84,45.84,0,0,1,17.16-18.74,47.41,47.41,0,0,1,25.36-6.9q14.55,0,24.89,6a38.91,38.91,0,0,1,15.57,16.13,48.88,48.88,0,0,1,5.23,22.66q0,6.35-4.11,9.88t-11,4.1q-14,1.32-24.8,1.31-10.26,0-22-.56l-6.53-.19q1.11,9.15,7.18,14.27t18.37,4.75a29.88,29.88,0,0,0,9-1.39,17.35,17.35,0,0,0,6-3.64l3.17-3.17A12.59,12.59,0,0,1,866.3,193a12.2,12.2,0,0,1,5-.93,11,11,0,0,1,8.11,3.26,10.4,10.4,0,0,1,3.26,7.55q0,6-6,11.38a43.22,43.22,0,0,1-15.39,8.58A59.64,59.64,0,0,1,842.25,226Q827.33,226,816.14,219.68Zm27.6-52.78q12.87-.18,18.83-1.68-.37-8-4.75-12.86t-15.76-4.66q-9.51.18-15.48,4.29t-7.27,13.79A150.66,150.66,0,0,0,843.74,166.9Z"/><path d="M898.22,211.47Q898,193,898,182.38a12.36,12.36,0,0,1,0-4.29q-.18-20.7-.18-37.48,0-7.28,3.82-11.1a12.6,12.6,0,0,1,9.23-3.82,12.89,12.89,0,0,1,7.18,2.14c2.17,1.44,3.76,4,4.76,7.56q7.45-4.11,22.37-9.33a12.12,12.12,0,0,1,9.42.47,11.63,11.63,0,0,1,6.25,7,12.08,12.08,0,0,1-.47,9.42,11.6,11.6,0,0,1-7,6.25,289.62,289.62,0,0,0-29.28,11.75,103.52,103.52,0,0,0-.19,17q.19,11.76.38,33.2a12.87,12.87,0,0,1-3.83,9.32,12.31,12.31,0,0,1-9.13,3.92,12.62,12.62,0,0,1-9.23-3.92A11.92,11.92,0,0,1,898.22,211.47Z"/><path d="M969.6,178.28a187.66,187.66,0,0,1-.75-27.6q.38-9,1.68-27.23,1.11-15.28,1.12-20a12.93,12.93,0,0,1,4-9.14,12.38,12.38,0,0,1,9.23-3.63A12.6,12.6,0,0,1,994,94.64a12.42,12.42,0,0,1,3.64,9.23q-.09,5.41-1.21,21.45-1.31,19.4-1.49,26.1a167.52,167.52,0,0,0,.46,24q1,9.23,3.08,12.21a24.7,24.7,0,0,0,14.54,9.89,32.24,32.24,0,0,0,18.46-.56,28,28,0,0,0,14.55-10.82q8.76-12.68,9.33-36.74.18-8.56-.57-22.56-1.11-18.65-1.3-22.75a13.19,13.19,0,0,1,3.64-9.32,12.08,12.08,0,0,1,9-4,12.83,12.83,0,0,1,9.32,3.54,12.49,12.49,0,0,1,4.11,9q0,3.73,1.12,22,.93,15.1.56,24.8-.75,31.71-13.62,50.54a51.73,51.73,0,0,1-19.39,16.87,61.55,61.55,0,0,1-24.9,7,54.45,54.45,0,0,1-25.45-4.84,48.62,48.62,0,0,1-20.7-17.16Q971.27,194.14,969.6,178.28Z"/><path d="M1112.77,258.09a12.4,12.4,0,0,1-9.23,3.64,12.63,12.63,0,0,1-9.14-3.92,12.77,12.77,0,0,1-3.73-9.23q.57-32.27.56-109.65a13.06,13.06,0,0,1,13.06-13.05,12.35,12.35,0,0,1,11,6.15q20.14-11.19,38.41-3,16,7.45,23.5,26.48a58.25,58.25,0,0,1,3.64,16.31,60.62,60.62,0,0,1-1.31,17.53,44.08,44.08,0,0,1-7.92,17.07,42,42,0,0,1-15.48,12.68q-16.05,8-28.72,4.29a36.63,36.63,0,0,1-10.25-4.85q-.2,14.35-.38,30.39A12.91,12.91,0,0,1,1112.77,258.09Zm31.8-61.16q7.28-3.74,9.69-12.78a33.28,33.28,0,0,0-.93-19.3q-4.11-9.14-10.44-12.12a15.64,15.64,0,0,0-12.68-.56q-6.15,2.43-12.87,12.68V186.3q3.73,6.9,8.39,10a16.61,16.61,0,0,0,9.14,3.08Q1137.68,200.28,1144.57,196.93Z"/></svg>